# vtk DataFile Version 3.0
Geomodel Borehole Cloud
ASCII
DATASET POLYDATA
POINTS 30 float
495394.960000 5404813.130000 -446.000000
495558.870000 5404339.030000 -427.000000
495724.710000 5403865.270000 -381.480000
495869.640000 5404980.280000 -487.150000
496022.310000 5404502.090000 -457.800000
496166.570000 5404015.050000 -382.250000
496497.740000 5404659.170000 -463.850000
496655.460000 5404184.680000 -386.120000
496814.180000 5403710.730000 -347.550000
496675.160000 5405766.010000 -550.650000
497136.010000 5404331.360000 -409.940000
497291.620000 5403856.010000 -381.900000
497934.730000 5405121.270000 -575.150000
498232.970000 5404152.170000 -460.650000
498879.630000 5405400.980000 -649.400000
497464.390000 5404959.310000 -557.130000
497621.500000 5404458.170000 -479.710000
497754.000000 5403998.030000 -433.070000
498083.150000 5404638.490000 -502.340000
498378.440000 5403689.890000 -427.240000
499027.939100 5404918.190000 -540.050000
498782.260000 5404074.310000 -434.250000
498695.790000 5404381.000000 -472.050000
498046.920000 5404790.110000 -523.920000
498616.540000 5404670.770000 -497.550000
496173.390000 5405602.250000 -523.180000
496830.860000 5405285.470000 -513.210000
497760.290000 5405592.220000 -579.930000
28.000000 0.000000 -355.380000
29.000000 0.000000 -95.400000
VERTICES 30 60
1 0
1 1
1 2
1 3
1 4
1 5
1 6
1 7
1 8
1 9
1 10
1 11
1 12
1 13
1 14
1 15
1 16
1 17
1 18
1 19
1 20
1 21
1 22
1 23
1 24
1 25
1 26
1 27
1 28
1 29