<?xml version="1.0" encoding="utf-8" standalone="no"?>
<!DOCTYPE svg PUBLIC "-//W3C//DTD SVG 1.1//EN"
  "http://www.w3.org/Graphics/SVG/1.1/DTD/svg11.dtd">
<svg xmlns:xlink="http://www.w3.org/1999/xlink" width="617.04pt" height="158.544pt" viewBox="0 0 617.04 158.544" xmlns="http://www.w3.org/2000/svg" version="1.1">
 <metadata>
  <rdf:RDF xmlns:dc="http://purl.org/dc/elements/1.1/" xmlns:cc="http://creativecommons.org/ns#" xmlns:rdf="http://www.w3.org/1999/02/22-rdf-syntax-ns#">
   <cc:Work>
    <dc:type rdf:resource="http://purl.org/dc/dcmitype/StillImage"/>
    <dc:date>2026-02-02T15:36:04.773524</dc:date>
    <dc:format>image/svg+xml</dc:format>
    <dc:creator>
     <cc:Agent>
      <dc:title>Matplotlib v3.10.8, https://matplotlib.org/</dc:title>
     </cc:Agent>
    </dc:creator>
   </cc:Work>
  </rdf:RDF>
 </metadata>
 <defs>
  <style type="text/css">*{stroke-linejoin: round; stroke-linecap: butt}</style>
 </defs>
 <g id="figure_1">
  <g id="patch_1">
   <path d="M 0 158.544 
L 617.04 158.544 
L 617.04 0 
L 0 0 
z
" style="fill: #ffffff"/>
  </g>
  <g id="axes_1">
   <g id="patch_2">
    <path d="M 7.2 108.1008 
L 67.464 108.1008 
Q 85.5432 108.1008 85.5432 103.77648 
L 85.5432 54.76752 
Q 85.5432 50.4432 67.464 50.4432 
L 7.2 50.4432 
Q -10.8792 50.4432 -10.8792 54.76752 
L -10.8792 103.77648 
Q -10.8792 108.1008 7.2 108.1008 
z
" clip-path="url(#pdd757f7236)" style="fill: #f9fafb; stroke: #5a6378; stroke-linejoin: miter"/>
   </g>
   <g id="patch_3">
    <path d="M 81.514811 79.272 
Q 91.568744 79.272 100.39284 79.272 
" clip-path="url(#pdd757f7236)" style="fill: none; stroke: #64748b; stroke-width: 1.1; stroke-linecap: round"/>
    <path d="M 95.59284 76.872 
L 100.39284 79.272 
L 95.59284 81.672 
z
" clip-path="url(#pdd757f7236)" style="fill: #64748b; stroke: #64748b; stroke-width: 1.1; stroke-linecap: round"/>
   </g>
   <g id="patch_4">
    <path d="M 115.6752 108.1008 
L 175.9392 108.1008 
Q 194.0184 108.1008 194.0184 103.77648 
L 194.0184 54.76752 
Q 194.0184 50.4432 175.9392 50.4432 
L 115.6752 50.4432 
Q 97.596 50.4432 97.596 54.76752 
L 97.596 103.77648 
Q 97.596 108.1008 115.6752 108.1008 
z
" clip-path="url(#pdd757f7236)" style="fill: #f9fafb; stroke: #5a6378; stroke-linejoin: miter"/>
   </g>
   <g id="patch_5">
    <path d="M 189.990011 79.272 
Q 200.043944 79.272 208.86804 79.272 
" clip-path="url(#pdd757f7236)" style="fill: none; stroke: #64748b; stroke-width: 1.1; stroke-linecap: round"/>
    <path d="M 204.06804 76.872 
L 208.86804 79.272 
L 204.06804 81.672 
z
" clip-path="url(#pdd757f7236)" style="fill: #64748b; stroke: #64748b; stroke-width: 1.1; stroke-linecap: round"/>
   </g>
   <g id="patch_6">
    <path d="M 224.1504 108.1008 
L 284.4144 108.1008 
Q 302.4936 108.1008 302.4936 103.77648 
L 302.4936 54.76752 
Q 302.4936 50.4432 284.4144 50.4432 
L 224.1504 50.4432 
Q 206.0712 50.4432 206.0712 54.76752 
L 206.0712 103.77648 
Q 206.0712 108.1008 224.1504 108.1008 
z
" clip-path="url(#pdd757f7236)" style="fill: #f9fafb; stroke: #5a6378; stroke-linejoin: miter"/>
   </g>
   <g id="patch_7">
    <path d="M 298.465211 79.272 
Q 308.519144 79.272 317.34324 79.272 
" clip-path="url(#pdd757f7236)" style="fill: none; stroke: #64748b; stroke-width: 1.1; stroke-linecap: round"/>
    <path d="M 312.54324 76.872 
L 317.34324 79.272 
L 312.54324 81.672 
z
" clip-path="url(#pdd757f7236)" style="fill: #64748b; stroke: #64748b; stroke-width: 1.1; stroke-linecap: round"/>
   </g>
   <g id="patch_8">
    <path d="M 332.6256 108.1008 
L 392.8896 108.1008 
Q 410.9688 108.1008 410.9688 103.77648 
L 410.9688 54.76752 
Q 410.9688 50.4432 392.8896 50.4432 
L 332.6256 50.4432 
Q 314.5464 50.4432 314.5464 54.76752 
L 314.5464 103.77648 
Q 314.5464 108.1008 332.6256 108.1008 
z
" clip-path="url(#pdd757f7236)" style="fill: #f9fafb; stroke: #5a6378; stroke-linejoin: miter"/>
   </g>
   <g id="patch_9">
    <path d="M 406.940411 79.272 
Q 416.994344 79.272 425.81844 79.272 
" clip-path="url(#pdd757f7236)" style="fill: none; stroke: #64748b; stroke-width: 1.1; stroke-linecap: round"/>
    <path d="M 421.01844 76.872 
L 425.81844 79.272 
L 421.01844 81.672 
z
" clip-path="url(#pdd757f7236)" style="fill: #64748b; stroke: #64748b; stroke-width: 1.1; stroke-linecap: round"/>
   </g>
   <g id="patch_10">
    <path d="M 441.1008 108.1008 
L 501.3648 108.1008 
Q 519.444 108.1008 519.444 103.77648 
L 519.444 54.76752 
Q 519.444 50.4432 501.3648 50.4432 
L 441.1008 50.4432 
Q 423.0216 50.4432 423.0216 54.76752 
L 423.0216 103.77648 
Q 423.0216 108.1008 441.1008 108.1008 
z
" clip-path="url(#pdd757f7236)" style="fill: #f9fafb; stroke: #5a6378; stroke-linejoin: miter"/>
   </g>
   <g id="patch_11">
    <path d="M 515.415611 79.272 
Q 525.469544 79.272 534.29364 79.272 
" clip-path="url(#pdd757f7236)" style="fill: none; stroke: #64748b; stroke-width: 1.1; stroke-linecap: round"/>
    <path d="M 529.49364 76.872 
L 534.29364 79.272 
L 529.49364 81.672 
z
" clip-path="url(#pdd757f7236)" style="fill: #64748b; stroke: #64748b; stroke-width: 1.1; stroke-linecap: round"/>
   </g>
   <g id="patch_12">
    <path d="M 549.576 108.1008 
L 609.84 108.1008 
Q 627.9192 108.1008 627.9192 103.77648 
L 627.9192 54.76752 
Q 627.9192 50.4432 609.84 50.4432 
L 549.576 50.4432 
Q 531.4968 50.4432 531.4968 54.76752 
L 531.4968 103.77648 
Q 531.4968 108.1008 549.576 108.1008 
z
" clip-path="url(#pdd757f7236)" style="fill: #f9fafb; stroke: #5a6378; stroke-linejoin: miter"/>
   </g>
   <g id="text_1">
    <text style="font-weight: 700; font-size: 10px; font-family: 'Microsoft YaHei', 'SimHei', 'PingFang SC', 'Arial', 'DejaVu Sans', sans-serif; text-anchor: start; fill: #4b5563" x="13.2264" y="15.84864" transform="rotate(-0 13.2264 15.84864)">Figure 1 | MPI 计算流程</text>
   </g>
   <g id="text_2">
    <path d="M 24.529266 74.01657 
L 25.271453 74.127898 
Q 25.077 75.02743 24.817234 75.806727 
L 27.655359 75.806727 
L 27.655359 76.437586 
L 27.072 76.437586 
Q 26.838953 79.165867 25.8845 80.770477 
Q 26.635594 81.790242 27.794891 82.440398 
Q 27.498016 82.848602 27.294656 83.17368 
Q 26.162078 82.440398 25.410984 81.429539 
Q 24.557469 82.486414 23.378875 83.265711 
Q 23.175516 82.997039 22.850438 82.680867 
Q 24.149266 81.827352 24.956766 80.742273 
Q 24.204188 79.443445 23.963719 77.74532 
Q 23.769266 78.089695 23.555516 78.38657 
Q 23.369969 78.116414 23.090906 77.79282 
Q 24.167078 76.243133 24.529266 74.01657 
z
M 18.554656 79.369227 
L 19.964813 79.369227 
Q 20.169656 79.01743 20.364109 78.646336 
L 21.032078 78.858602 
Q 20.883641 79.118367 20.735203 79.369227 
L 23.007781 79.369227 
L 23.007781 79.971883 
Q 22.655984 80.881805 21.940516 81.567586 
Q 22.451141 81.809539 22.979578 82.050008 
L 22.571375 82.691258 
Q 21.996922 82.36618 21.374969 82.041102 
Q 20.327 82.792195 18.731297 83.228602 
Q 18.582859 82.931727 18.415125 82.57993 
Q 19.770359 82.272664 20.707 81.698211 
Q 19.909891 81.290008 19.037078 80.862508 
Q 19.333953 80.436492 19.613016 79.982273 
L 18.554656 79.982273 
L 18.554656 79.369227 
z
M 18.657078 76.17782 
L 20.790125 76.17782 
L 20.790125 74.099695 
L 21.477391 74.099695 
L 21.477391 76.17782 
L 23.258641 76.17782 
L 23.258641 76.790867 
L 21.477391 76.790867 
L 21.477391 77.356414 
L 21.754969 77.040242 
Q 22.618875 77.671102 23.202234 78.153523 
L 22.756922 78.673055 
Q 22.247781 78.190633 21.477391 77.587977 
L 21.477391 78.646336 
L 20.790125 78.646336 
L 20.790125 77.347508 
Q 19.947 78.227742 18.823328 78.895711 
Q 18.648172 78.627039 18.425516 78.330164 
Q 19.593719 77.699305 20.567469 76.790867 
L 18.657078 76.790867 
L 18.657078 76.17782 
z
M 26.329813 76.437586 
L 24.594578 76.437586 
Q 24.548563 76.55782 24.492156 76.669148 
Q 24.659891 78.635945 25.419891 80.037195 
Q 26.162078 78.683445 26.329813 76.437586 
z
M 19.947 80.650242 
Q 20.604578 80.947117 21.30075 81.270711 
Q 21.940516 80.724461 22.302703 79.982273 
L 20.373016 79.982273 
Q 20.159266 80.325164 19.947 80.650242 
z
M 22.841531 74.331258 
L 23.415984 74.712742 
Q 22.905359 75.380711 22.396219 75.946258 
Q 22.182469 75.760711 21.8945 75.555867 
Q 22.376922 74.99032 22.841531 74.331258 
z
M 18.897547 74.739461 
L 19.427469 74.378758 
Q 19.844578 74.887898 20.289891 75.472742 
L 19.713953 75.880945 
Q 19.30575 75.278289 18.897547 74.739461 
z
M 32.136688 79.908055 
L 34.048563 79.908055 
L 34.048563 78.729461 
L 31.885828 78.729461 
Q 31.784891 81.58243 30.569188 83.13657 
Q 30.346531 82.848602 30.067469 82.551727 
Q 31.22825 81.122273 31.22825 78.163914 
L 31.22825 74.545008 
L 36.701141 74.545008 
L 36.701141 77.23618 
L 36.033172 77.23618 
L 36.033172 76.948211 
L 31.896219 76.948211 
L 31.896219 78.098602 
L 34.048563 78.098602 
L 34.048563 77.124852 
L 34.716531 77.124852 
L 34.716531 78.098602 
L 37.16575 78.098602 
L 37.16575 78.729461 
L 34.716531 78.729461 
L 34.716531 79.908055 
L 36.646219 79.908055 
L 36.646219 83.043055 
L 35.97825 83.043055 
L 35.97825 82.505711 
L 32.804656 82.505711 
L 32.804656 83.043055 
L 32.136688 83.043055 
L 32.136688 79.908055 
z
M 27.980438 78.96993 
Q 28.6395 78.788836 29.261453 78.603289 
L 29.261453 76.483602 
L 28.091766 76.483602 
L 28.091766 75.815633 
L 29.261453 75.815633 
L 29.261453 74.044773 
L 29.947234 74.044773 
L 29.947234 75.815633 
L 30.958094 75.815633 
L 30.958094 76.483602 
L 29.947234 76.483602 
L 29.947234 78.391023 
Q 30.388094 78.251492 30.809656 78.107508 
Q 30.820047 78.524617 30.866063 78.831883 
Q 30.388094 78.984773 29.947234 79.133211 
L 29.947234 81.93868 
Q 29.947234 82.988133 29.028406 83.005945 
Q 28.741922 83.014852 28.174891 82.997039 
Q 28.137781 82.625945 28.063563 82.226648 
Q 28.574188 82.283055 28.842859 82.283055 
Q 29.261453 82.283055 29.261453 81.809539 
L 29.261453 79.36032 
Q 28.624656 79.57407 28.073953 79.768523 
L 27.980438 78.96993 
z
M 36.033172 75.158055 
L 31.896219 75.158055 
L 31.896219 76.335164 
L 36.033172 76.335164 
L 36.033172 75.158055 
z
M 35.97825 80.519617 
L 32.804656 80.519617 
L 32.804656 81.90157 
L 35.97825 81.90157 
L 35.97825 80.519617 
z
M 38.259734 78.598836 
L 39.095438 78.598836 
L 39.095438 76.911102 
L 39.707 76.911102 
L 39.707 78.598836 
L 40.597625 78.598836 
L 40.597625 79.211883 
L 39.707 79.211883 
L 39.707 80.482508 
Q 40.198328 80.417195 40.708953 80.33407 
Q 40.662938 80.687352 40.643641 80.973836 
Q 40.171609 81.039148 39.707 81.104461 
L 39.707 83.17368 
L 39.095438 83.17368 
L 39.095438 81.196492 
Q 38.342859 81.30782 37.582859 81.429539 
L 37.480438 80.75118 
Q 38.279031 80.668055 39.095438 80.565633 
L 39.095438 79.211883 
L 37.611063 79.211883 
L 37.611063 78.572117 
Q 37.962859 77.57907 38.342859 76.04868 
L 37.526453 76.04868 
L 37.526453 75.45493 
L 38.491297 75.45493 
Q 38.650125 74.786961 38.816375 74.025477 
L 39.484344 74.173914 
Q 39.307703 74.850789 39.150359 75.45493 
L 40.829188 75.45493 
L 40.829188 76.04868 
L 38.993016 76.04868 
Q 38.584813 77.550867 38.259734 78.598836 
z
M 41.507547 83.154383 
L 40.913797 83.154383 
L 40.913797 77.690398 
L 43.380828 77.690398 
L 43.380828 82.254852 
Q 43.380828 83.071258 42.629734 83.071258 
Q 42.341766 83.071258 41.905359 83.062352 
Q 41.859344 82.857508 41.776219 82.486414 
Q 42.147313 82.514617 42.453094 82.514617 
Q 42.787078 82.514617 42.787078 82.143523 
L 42.787078 81.067352 
L 41.507547 81.067352 
L 41.507547 83.154383 
z
M 44.188328 74.090789 
L 44.030984 74.294148 
Q 45.116063 75.926961 46.748875 76.632039 
Q 46.432703 77.003133 46.266453 77.273289 
Q 45.635594 76.920008 45.096766 76.474695 
L 45.096766 76.939305 
L 41.878641 76.939305 
L 41.878641 76.531102 
Q 41.330906 76.98532 40.737156 77.36532 
Q 40.458094 77.003133 40.245828 76.799773 
Q 42.090906 75.723602 43.223484 74.090789 
L 44.188328 74.090789 
z
M 45.570281 77.522664 
L 46.201141 77.522664 
L 46.201141 82.041102 
Q 46.201141 83.071258 45.329813 83.080164 
Q 44.856297 83.08907 44.24325 83.062352 
Q 44.197234 82.717977 44.114109 82.36618 
Q 44.698953 82.440398 45.116063 82.440398 
Q 45.570281 82.440398 45.570281 81.957977 
L 45.570281 77.522664 
z
M 43.575281 74.77657 
Q 42.880594 75.649383 42.073094 76.354461 
L 44.948328 76.354461 
Q 44.160125 75.667195 43.575281 74.77657 
z
M 44.151219 77.967977 
L 44.744969 77.967977 
L 44.744969 81.34493 
L 44.151219 81.34493 
L 44.151219 77.967977 
z
M 41.507547 80.54782 
L 42.787078 80.54782 
L 42.787078 79.657195 
L 41.507547 79.657195 
L 41.507547 80.54782 
z
M 42.787078 78.255945 
L 41.507547 78.255945 
L 41.507547 79.137664 
L 42.787078 79.137664 
L 42.787078 78.255945 
z
M 49.549891 74.545008 
L 50.162938 74.108602 
Q 51.202 74.749852 52.444422 77.393523 
Q 54.179656 81.187586 56.211766 82.023289 
L 55.561609 82.839695 
Q 53.530984 81.632898 51.804656 77.755711 
Q 51.665125 77.443992 51.531531 77.161961 
Q 50.455359 80.849148 47.528172 82.894617 
Q 47.277313 82.523523 46.962625 82.198445 
Q 49.972938 80.301414 51.016453 76.197117 
Q 50.287625 74.981414 49.549891 74.545008 
z
" style="fill: #2c3545; stroke: #ffffff; stroke-width: 2"/>
    <path d="M 24.529266 74.01657 
L 25.271453 74.127898 
Q 25.077 75.02743 24.817234 75.806727 
L 27.655359 75.806727 
L 27.655359 76.437586 
L 27.072 76.437586 
Q 26.838953 79.165867 25.8845 80.770477 
Q 26.635594 81.790242 27.794891 82.440398 
Q 27.498016 82.848602 27.294656 83.17368 
Q 26.162078 82.440398 25.410984 81.429539 
Q 24.557469 82.486414 23.378875 83.265711 
Q 23.175516 82.997039 22.850438 82.680867 
Q 24.149266 81.827352 24.956766 80.742273 
Q 24.204188 79.443445 23.963719 77.74532 
Q 23.769266 78.089695 23.555516 78.38657 
Q 23.369969 78.116414 23.090906 77.79282 
Q 24.167078 76.243133 24.529266 74.01657 
z
M 18.554656 79.369227 
L 19.964813 79.369227 
Q 20.169656 79.01743 20.364109 78.646336 
L 21.032078 78.858602 
Q 20.883641 79.118367 20.735203 79.369227 
L 23.007781 79.369227 
L 23.007781 79.971883 
Q 22.655984 80.881805 21.940516 81.567586 
Q 22.451141 81.809539 22.979578 82.050008 
L 22.571375 82.691258 
Q 21.996922 82.36618 21.374969 82.041102 
Q 20.327 82.792195 18.731297 83.228602 
Q 18.582859 82.931727 18.415125 82.57993 
Q 19.770359 82.272664 20.707 81.698211 
Q 19.909891 81.290008 19.037078 80.862508 
Q 19.333953 80.436492 19.613016 79.982273 
L 18.554656 79.982273 
L 18.554656 79.369227 
z
M 18.657078 76.17782 
L 20.790125 76.17782 
L 20.790125 74.099695 
L 21.477391 74.099695 
L 21.477391 76.17782 
L 23.258641 76.17782 
L 23.258641 76.790867 
L 21.477391 76.790867 
L 21.477391 77.356414 
L 21.754969 77.040242 
Q 22.618875 77.671102 23.202234 78.153523 
L 22.756922 78.673055 
Q 22.247781 78.190633 21.477391 77.587977 
L 21.477391 78.646336 
L 20.790125 78.646336 
L 20.790125 77.347508 
Q 19.947 78.227742 18.823328 78.895711 
Q 18.648172 78.627039 18.425516 78.330164 
Q 19.593719 77.699305 20.567469 76.790867 
L 18.657078 76.790867 
L 18.657078 76.17782 
z
M 26.329813 76.437586 
L 24.594578 76.437586 
Q 24.548563 76.55782 24.492156 76.669148 
Q 24.659891 78.635945 25.419891 80.037195 
Q 26.162078 78.683445 26.329813 76.437586 
z
M 19.947 80.650242 
Q 20.604578 80.947117 21.30075 81.270711 
Q 21.940516 80.724461 22.302703 79.982273 
L 20.373016 79.982273 
Q 20.159266 80.325164 19.947 80.650242 
z
M 22.841531 74.331258 
L 23.415984 74.712742 
Q 22.905359 75.380711 22.396219 75.946258 
Q 22.182469 75.760711 21.8945 75.555867 
Q 22.376922 74.99032 22.841531 74.331258 
z
M 18.897547 74.739461 
L 19.427469 74.378758 
Q 19.844578 74.887898 20.289891 75.472742 
L 19.713953 75.880945 
Q 19.30575 75.278289 18.897547 74.739461 
z
M 32.136688 79.908055 
L 34.048563 79.908055 
L 34.048563 78.729461 
L 31.885828 78.729461 
Q 31.784891 81.58243 30.569188 83.13657 
Q 30.346531 82.848602 30.067469 82.551727 
Q 31.22825 81.122273 31.22825 78.163914 
L 31.22825 74.545008 
L 36.701141 74.545008 
L 36.701141 77.23618 
L 36.033172 77.23618 
L 36.033172 76.948211 
L 31.896219 76.948211 
L 31.896219 78.098602 
L 34.048563 78.098602 
L 34.048563 77.124852 
L 34.716531 77.124852 
L 34.716531 78.098602 
L 37.16575 78.098602 
L 37.16575 78.729461 
L 34.716531 78.729461 
L 34.716531 79.908055 
L 36.646219 79.908055 
L 36.646219 83.043055 
L 35.97825 83.043055 
L 35.97825 82.505711 
L 32.804656 82.505711 
L 32.804656 83.043055 
L 32.136688 83.043055 
L 32.136688 79.908055 
z
M 27.980438 78.96993 
Q 28.6395 78.788836 29.261453 78.603289 
L 29.261453 76.483602 
L 28.091766 76.483602 
L 28.091766 75.815633 
L 29.261453 75.815633 
L 29.261453 74.044773 
L 29.947234 74.044773 
L 29.947234 75.815633 
L 30.958094 75.815633 
L 30.958094 76.483602 
L 29.947234 76.483602 
L 29.947234 78.391023 
Q 30.388094 78.251492 30.809656 78.107508 
Q 30.820047 78.524617 30.866063 78.831883 
Q 30.388094 78.984773 29.947234 79.133211 
L 29.947234 81.93868 
Q 29.947234 82.988133 29.028406 83.005945 
Q 28.741922 83.014852 28.174891 82.997039 
Q 28.137781 82.625945 28.063563 82.226648 
Q 28.574188 82.283055 28.842859 82.283055 
Q 29.261453 82.283055 29.261453 81.809539 
L 29.261453 79.36032 
Q 28.624656 79.57407 28.073953 79.768523 
L 27.980438 78.96993 
z
M 36.033172 75.158055 
L 31.896219 75.158055 
L 31.896219 76.335164 
L 36.033172 76.335164 
L 36.033172 75.158055 
z
M 35.97825 80.519617 
L 32.804656 80.519617 
L 32.804656 81.90157 
L 35.97825 81.90157 
L 35.97825 80.519617 
z
M 38.259734 78.598836 
L 39.095438 78.598836 
L 39.095438 76.911102 
L 39.707 76.911102 
L 39.707 78.598836 
L 40.597625 78.598836 
L 40.597625 79.211883 
L 39.707 79.211883 
L 39.707 80.482508 
Q 40.198328 80.417195 40.708953 80.33407 
Q 40.662938 80.687352 40.643641 80.973836 
Q 40.171609 81.039148 39.707 81.104461 
L 39.707 83.17368 
L 39.095438 83.17368 
L 39.095438 81.196492 
Q 38.342859 81.30782 37.582859 81.429539 
L 37.480438 80.75118 
Q 38.279031 80.668055 39.095438 80.565633 
L 39.095438 79.211883 
L 37.611063 79.211883 
L 37.611063 78.572117 
Q 37.962859 77.57907 38.342859 76.04868 
L 37.526453 76.04868 
L 37.526453 75.45493 
L 38.491297 75.45493 
Q 38.650125 74.786961 38.816375 74.025477 
L 39.484344 74.173914 
Q 39.307703 74.850789 39.150359 75.45493 
L 40.829188 75.45493 
L 40.829188 76.04868 
L 38.993016 76.04868 
Q 38.584813 77.550867 38.259734 78.598836 
z
M 41.507547 83.154383 
L 40.913797 83.154383 
L 40.913797 77.690398 
L 43.380828 77.690398 
L 43.380828 82.254852 
Q 43.380828 83.071258 42.629734 83.071258 
Q 42.341766 83.071258 41.905359 83.062352 
Q 41.859344 82.857508 41.776219 82.486414 
Q 42.147313 82.514617 42.453094 82.514617 
Q 42.787078 82.514617 42.787078 82.143523 
L 42.787078 81.067352 
L 41.507547 81.067352 
L 41.507547 83.154383 
z
M 44.188328 74.090789 
L 44.030984 74.294148 
Q 45.116063 75.926961 46.748875 76.632039 
Q 46.432703 77.003133 46.266453 77.273289 
Q 45.635594 76.920008 45.096766 76.474695 
L 45.096766 76.939305 
L 41.878641 76.939305 
L 41.878641 76.531102 
Q 41.330906 76.98532 40.737156 77.36532 
Q 40.458094 77.003133 40.245828 76.799773 
Q 42.090906 75.723602 43.223484 74.090789 
L 44.188328 74.090789 
z
M 45.570281 77.522664 
L 46.201141 77.522664 
L 46.201141 82.041102 
Q 46.201141 83.071258 45.329813 83.080164 
Q 44.856297 83.08907 44.24325 83.062352 
Q 44.197234 82.717977 44.114109 82.36618 
Q 44.698953 82.440398 45.116063 82.440398 
Q 45.570281 82.440398 45.570281 81.957977 
L 45.570281 77.522664 
z
M 43.575281 74.77657 
Q 42.880594 75.649383 42.073094 76.354461 
L 44.948328 76.354461 
Q 44.160125 75.667195 43.575281 74.77657 
z
M 44.151219 77.967977 
L 44.744969 77.967977 
L 44.744969 81.34493 
L 44.151219 81.34493 
L 44.151219 77.967977 
z
M 41.507547 80.54782 
L 42.787078 80.54782 
L 42.787078 79.657195 
L 41.507547 79.657195 
L 41.507547 80.54782 
z
M 42.787078 78.255945 
L 41.507547 78.255945 
L 41.507547 79.137664 
L 42.787078 79.137664 
L 42.787078 78.255945 
z
M 49.549891 74.545008 
L 50.162938 74.108602 
Q 51.202 74.749852 52.444422 77.393523 
Q 54.179656 81.187586 56.211766 82.023289 
L 55.561609 82.839695 
Q 53.530984 81.632898 51.804656 77.755711 
Q 51.665125 77.443992 51.531531 77.161961 
Q 50.455359 80.849148 47.528172 82.894617 
Q 47.277313 82.523523 46.962625 82.198445 
Q 49.972938 80.301414 51.016453 76.197117 
Q 50.287625 74.981414 49.549891 74.545008 
z
" style="fill: #2c3545"/>
   </g>
   <g id="text_3">
    <path d="M 120.103762 81.888211 
L 119.009778 81.888211 
L 117.817825 79.893211 
Q 117.460091 79.295008 117.163216 79.079773 
Q 116.866341 78.863055 116.453684 78.863055 
L 115.785716 78.863055 
L 115.785716 81.888211 
L 114.857981 81.888211 
L 114.857981 74.702352 
L 117.047434 74.702352 
Q 118.095403 74.702352 118.689153 75.208523 
Q 119.282903 75.714695 119.282903 76.623133 
Q 119.282903 78.116414 117.6872 78.561727 
L 117.6872 78.585477 
Q 117.984075 78.710164 118.199309 78.943211 
Q 118.416028 79.174773 118.758919 79.735867 
L 120.103762 81.888211 
z
M 115.785716 75.514305 
L 115.785716 78.052586 
L 116.881184 78.052586 
Q 117.516497 78.052586 117.912825 77.681492 
Q 118.309153 77.310398 118.309153 76.706258 
Q 118.309153 76.145164 117.946966 75.830477 
Q 117.586262 75.514305 116.894544 75.514305 
L 115.785716 75.514305 
z
M 120.725901 80.538914 
Q 121.055432 80.825398 121.60762 81.010945 
Q 122.159807 81.196492 122.655589 81.196492 
Q 124.168167 81.196492 124.168167 80.12032 
Q 124.168167 79.818992 124.004886 79.578523 
Q 123.843089 79.33657 123.559573 79.151023 
Q 123.277542 78.965477 122.498245 78.581023 
Q 121.41762 78.042195 121.073245 77.580555 
Q 120.730354 77.118914 120.730354 76.525164 
Q 120.730354 75.630086 121.448792 75.106102 
Q 122.168714 74.582117 123.262698 74.582117 
Q 124.334417 74.582117 124.836136 74.841883 
L 124.836136 75.852742 
Q 124.185979 75.402977 123.194417 75.402977 
Q 122.535354 75.402977 122.119729 75.67907 
Q 121.704104 75.955164 121.704104 76.446492 
Q 121.704104 76.882898 121.992073 77.157508 
Q 122.280042 77.430633 123.240432 77.904148 
Q 124.297307 78.408836 124.71887 78.915008 
Q 125.141917 79.419695 125.141917 80.050555 
Q 125.141917 80.997586 124.454651 81.503758 
Q 123.76887 82.008445 122.548714 82.008445 
Q 122.122698 82.008445 121.554182 81.889695 
Q 120.985667 81.77243 120.725901 81.595789 
L 120.725901 80.538914 
z
M 127.47053 74.702352 
L 127.47053 81.888211 
L 126.542796 81.888211 
L 126.542796 74.702352 
L 127.47053 74.702352 
z
M 135.361468 74.702352 
L 131.914749 83.080164 
L 131.065686 83.080164 
L 134.512405 74.702352 
L 135.361468 74.702352 
z
M 139.016184 81.888211 
L 139.016184 74.702352 
L 141.126966 74.702352 
Q 142.072512 74.702352 142.638059 75.155086 
Q 143.205091 75.60782 143.205091 76.354461 
Q 143.205091 76.948211 142.868137 77.40243 
Q 142.532669 77.856648 141.943372 78.046648 
L 141.943372 78.065945 
Q 142.676653 78.14907 143.114544 78.621102 
Q 143.552434 79.091648 143.552434 79.814539 
Q 143.552434 80.742273 142.88595 81.315242 
Q 142.22095 81.888211 141.181887 81.888211 
L 139.016184 81.888211 
z
M 139.943919 75.514305 
L 139.943919 77.764617 
L 140.788528 77.764617 
Q 141.46095 77.764617 141.843919 77.438055 
Q 142.226888 77.110008 142.226888 76.531102 
Q 142.226888 75.514305 140.871653 75.514305 
L 139.943919 75.514305 
z
M 139.943919 78.572117 
L 139.943919 81.076258 
L 141.0572 81.076258 
Q 141.786028 81.076258 142.182356 80.740789 
Q 142.578684 80.403836 142.578684 79.805633 
Q 142.578684 78.572117 140.904309 78.572117 
L 139.943919 78.572117 
z
M 150.222659 81.888211 
L 149.128675 81.888211 
L 147.936721 79.893211 
Q 147.578987 79.295008 147.282112 79.079773 
Q 146.985237 78.863055 146.572581 78.863055 
L 145.904612 78.863055 
L 145.904612 81.888211 
L 144.976878 81.888211 
L 144.976878 74.702352 
L 147.166331 74.702352 
Q 148.2143 74.702352 148.80805 75.208523 
Q 149.4018 75.714695 149.4018 76.623133 
Q 149.4018 78.116414 147.806096 78.561727 
L 147.806096 78.585477 
Q 148.102971 78.710164 148.318206 78.943211 
Q 148.534925 79.174773 148.877815 79.735867 
L 150.222659 81.888211 
z
M 145.904612 75.514305 
L 145.904612 78.052586 
L 147.000081 78.052586 
Q 147.635393 78.052586 148.031721 77.681492 
Q 148.42805 77.310398 148.42805 76.706258 
Q 148.42805 76.145164 148.065862 75.830477 
Q 147.705159 75.514305 147.01344 75.514305 
L 145.904612 75.514305 
z
M 152.106516 74.702352 
L 152.106516 81.888211 
L 151.178782 81.888211 
L 151.178782 74.702352 
L 152.106516 74.702352 
z
M 159.997454 74.702352 
L 156.550735 83.080164 
L 155.701673 83.080164 
L 159.148391 74.702352 
L 159.997454 74.702352 
z
M 169.297249 81.888211 
L 168.27303 81.888211 
L 167.539749 79.921414 
L 164.547249 79.921414 
L 163.857014 81.888211 
L 162.831311 81.888211 
L 165.568499 74.702352 
L 166.560061 74.702352 
L 169.297249 81.888211 
z
M 167.25178 79.109461 
L 166.166702 76.122898 
Q 166.114749 75.978914 166.055374 75.62118 
L 166.031624 75.62118 
Q 165.981155 75.946258 165.915843 76.122898 
L 164.839671 79.109461 
L 167.25178 79.109461 
z
M 170.002512 80.538914 
Q 170.332044 80.825398 170.884231 81.010945 
Q 171.436419 81.196492 171.9322 81.196492 
Q 173.444778 81.196492 173.444778 80.12032 
Q 173.444778 79.818992 173.281497 79.578523 
Q 173.1197 79.33657 172.836184 79.151023 
Q 172.554153 78.965477 171.774856 78.581023 
Q 170.694231 78.042195 170.349856 77.580555 
Q 170.006966 77.118914 170.006966 76.525164 
Q 170.006966 75.630086 170.725403 75.106102 
Q 171.445325 74.582117 172.539309 74.582117 
Q 173.611028 74.582117 174.112747 74.841883 
L 174.112747 75.852742 
Q 173.462591 75.402977 172.471028 75.402977 
Q 171.811966 75.402977 171.396341 75.67907 
Q 170.980716 75.955164 170.980716 76.446492 
Q 170.980716 76.882898 171.268684 77.157508 
Q 171.556653 77.430633 172.517044 77.904148 
Q 173.573919 78.408836 173.995481 78.915008 
Q 174.418528 79.419695 174.418528 80.050555 
Q 174.418528 80.997586 173.731262 81.503758 
Q 173.045481 82.008445 171.825325 82.008445 
Q 171.399309 82.008445 170.830794 81.889695 
Q 170.262278 81.77243 170.002512 81.595789 
L 170.002512 80.538914 
z
M 176.747141 74.702352 
L 176.747141 81.888211 
L 175.819407 81.888211 
L 175.819407 74.702352 
L 176.747141 74.702352 
z
" style="fill: #2c3545; stroke: #ffffff; stroke-width: 2"/>
    <path d="M 120.103762 81.888211 
L 119.009778 81.888211 
L 117.817825 79.893211 
Q 117.460091 79.295008 117.163216 79.079773 
Q 116.866341 78.863055 116.453684 78.863055 
L 115.785716 78.863055 
L 115.785716 81.888211 
L 114.857981 81.888211 
L 114.857981 74.702352 
L 117.047434 74.702352 
Q 118.095403 74.702352 118.689153 75.208523 
Q 119.282903 75.714695 119.282903 76.623133 
Q 119.282903 78.116414 117.6872 78.561727 
L 117.6872 78.585477 
Q 117.984075 78.710164 118.199309 78.943211 
Q 118.416028 79.174773 118.758919 79.735867 
L 120.103762 81.888211 
z
M 115.785716 75.514305 
L 115.785716 78.052586 
L 116.881184 78.052586 
Q 117.516497 78.052586 117.912825 77.681492 
Q 118.309153 77.310398 118.309153 76.706258 
Q 118.309153 76.145164 117.946966 75.830477 
Q 117.586262 75.514305 116.894544 75.514305 
L 115.785716 75.514305 
z
M 120.725901 80.538914 
Q 121.055432 80.825398 121.60762 81.010945 
Q 122.159807 81.196492 122.655589 81.196492 
Q 124.168167 81.196492 124.168167 80.12032 
Q 124.168167 79.818992 124.004886 79.578523 
Q 123.843089 79.33657 123.559573 79.151023 
Q 123.277542 78.965477 122.498245 78.581023 
Q 121.41762 78.042195 121.073245 77.580555 
Q 120.730354 77.118914 120.730354 76.525164 
Q 120.730354 75.630086 121.448792 75.106102 
Q 122.168714 74.582117 123.262698 74.582117 
Q 124.334417 74.582117 124.836136 74.841883 
L 124.836136 75.852742 
Q 124.185979 75.402977 123.194417 75.402977 
Q 122.535354 75.402977 122.119729 75.67907 
Q 121.704104 75.955164 121.704104 76.446492 
Q 121.704104 76.882898 121.992073 77.157508 
Q 122.280042 77.430633 123.240432 77.904148 
Q 124.297307 78.408836 124.71887 78.915008 
Q 125.141917 79.419695 125.141917 80.050555 
Q 125.141917 80.997586 124.454651 81.503758 
Q 123.76887 82.008445 122.548714 82.008445 
Q 122.122698 82.008445 121.554182 81.889695 
Q 120.985667 81.77243 120.725901 81.595789 
L 120.725901 80.538914 
z
M 127.47053 74.702352 
L 127.47053 81.888211 
L 126.542796 81.888211 
L 126.542796 74.702352 
L 127.47053 74.702352 
z
M 135.361468 74.702352 
L 131.914749 83.080164 
L 131.065686 83.080164 
L 134.512405 74.702352 
L 135.361468 74.702352 
z
M 139.016184 81.888211 
L 139.016184 74.702352 
L 141.126966 74.702352 
Q 142.072512 74.702352 142.638059 75.155086 
Q 143.205091 75.60782 143.205091 76.354461 
Q 143.205091 76.948211 142.868137 77.40243 
Q 142.532669 77.856648 141.943372 78.046648 
L 141.943372 78.065945 
Q 142.676653 78.14907 143.114544 78.621102 
Q 143.552434 79.091648 143.552434 79.814539 
Q 143.552434 80.742273 142.88595 81.315242 
Q 142.22095 81.888211 141.181887 81.888211 
L 139.016184 81.888211 
z
M 139.943919 75.514305 
L 139.943919 77.764617 
L 140.788528 77.764617 
Q 141.46095 77.764617 141.843919 77.438055 
Q 142.226888 77.110008 142.226888 76.531102 
Q 142.226888 75.514305 140.871653 75.514305 
L 139.943919 75.514305 
z
M 139.943919 78.572117 
L 139.943919 81.076258 
L 141.0572 81.076258 
Q 141.786028 81.076258 142.182356 80.740789 
Q 142.578684 80.403836 142.578684 79.805633 
Q 142.578684 78.572117 140.904309 78.572117 
L 139.943919 78.572117 
z
M 150.222659 81.888211 
L 149.128675 81.888211 
L 147.936721 79.893211 
Q 147.578987 79.295008 147.282112 79.079773 
Q 146.985237 78.863055 146.572581 78.863055 
L 145.904612 78.863055 
L 145.904612 81.888211 
L 144.976878 81.888211 
L 144.976878 74.702352 
L 147.166331 74.702352 
Q 148.2143 74.702352 148.80805 75.208523 
Q 149.4018 75.714695 149.4018 76.623133 
Q 149.4018 78.116414 147.806096 78.561727 
L 147.806096 78.585477 
Q 148.102971 78.710164 148.318206 78.943211 
Q 148.534925 79.174773 148.877815 79.735867 
L 150.222659 81.888211 
z
M 145.904612 75.514305 
L 145.904612 78.052586 
L 147.000081 78.052586 
Q 147.635393 78.052586 148.031721 77.681492 
Q 148.42805 77.310398 148.42805 76.706258 
Q 148.42805 76.145164 148.065862 75.830477 
Q 147.705159 75.514305 147.01344 75.514305 
L 145.904612 75.514305 
z
M 152.106516 74.702352 
L 152.106516 81.888211 
L 151.178782 81.888211 
L 151.178782 74.702352 
L 152.106516 74.702352 
z
M 159.997454 74.702352 
L 156.550735 83.080164 
L 155.701673 83.080164 
L 159.148391 74.702352 
L 159.997454 74.702352 
z
M 169.297249 81.888211 
L 168.27303 81.888211 
L 167.539749 79.921414 
L 164.547249 79.921414 
L 163.857014 81.888211 
L 162.831311 81.888211 
L 165.568499 74.702352 
L 166.560061 74.702352 
L 169.297249 81.888211 
z
M 167.25178 79.109461 
L 166.166702 76.122898 
Q 166.114749 75.978914 166.055374 75.62118 
L 166.031624 75.62118 
Q 165.981155 75.946258 165.915843 76.122898 
L 164.839671 79.109461 
L 167.25178 79.109461 
z
M 170.002512 80.538914 
Q 170.332044 80.825398 170.884231 81.010945 
Q 171.436419 81.196492 171.9322 81.196492 
Q 173.444778 81.196492 173.444778 80.12032 
Q 173.444778 79.818992 173.281497 79.578523 
Q 173.1197 79.33657 172.836184 79.151023 
Q 172.554153 78.965477 171.774856 78.581023 
Q 170.694231 78.042195 170.349856 77.580555 
Q 170.006966 77.118914 170.006966 76.525164 
Q 170.006966 75.630086 170.725403 75.106102 
Q 171.445325 74.582117 172.539309 74.582117 
Q 173.611028 74.582117 174.112747 74.841883 
L 174.112747 75.852742 
Q 173.462591 75.402977 172.471028 75.402977 
Q 171.811966 75.402977 171.396341 75.67907 
Q 170.980716 75.955164 170.980716 76.446492 
Q 170.980716 76.882898 171.268684 77.157508 
Q 171.556653 77.430633 172.517044 77.904148 
Q 173.573919 78.408836 173.995481 78.915008 
Q 174.418528 79.419695 174.418528 80.050555 
Q 174.418528 80.997586 173.731262 81.503758 
Q 173.045481 82.008445 171.825325 82.008445 
Q 171.399309 82.008445 170.830794 81.889695 
Q 170.262278 81.77243 170.002512 81.595789 
L 170.002512 80.538914 
z
M 176.747141 74.702352 
L 176.747141 81.888211 
L 175.819407 81.888211 
L 175.819407 74.702352 
L 176.747141 74.702352 
z
" style="fill: #2c3545"/>
   </g>
   <g id="text_4">
    <path d="M 238.742478 75.333211 
L 238.742478 74.638523 
L 244.012009 74.638523 
L 244.012009 75.315398 
Q 243.577088 78.543914 242.045212 80.519617 
Q 243.047166 81.530477 244.699275 82.189539 
Q 244.299978 82.625945 244.077322 82.95993 
Q 242.481619 82.134617 241.536072 81.122273 
Q 240.477712 82.226648 238.585134 83.182586 
Q 238.381775 82.848602 238.065603 82.477508 
Q 240.023494 81.55868 241.05365 80.528523 
Q 239.6524 78.76657 239.318416 75.333211 
L 238.742478 75.333211 
z
M 235.375916 79.888758 
Q 236.321462 78.441492 236.794978 76.651336 
L 235.467947 76.651336 
L 235.467947 76.00118 
L 236.915212 76.00118 
L 236.915212 74.034383 
L 237.620291 74.034383 
L 237.620291 76.00118 
L 238.928025 76.00118 
L 238.928025 76.651336 
L 237.620291 76.651336 
L 237.620291 77.875945 
L 238.019588 77.504852 
Q 238.853806 78.293055 239.364431 78.906102 
L 238.807791 79.425633 
Q 238.185837 78.635945 237.620291 78.042195 
L 237.620291 83.154383 
L 236.915212 83.154383 
L 236.915212 78.070398 
Q 236.414978 79.628992 235.690603 80.705164 
Q 235.561463 80.305867 235.375916 79.888758 
z
M 243.223806 75.333211 
L 240.060603 75.333211 
Q 240.338181 78.330164 241.553884 79.945164 
Q 242.8349 78.227742 243.223806 75.333211 
z
M 244.950134 82.189539 
L 249.198416 82.189539 
L 249.198416 81.503758 
L 245.673025 81.503758 
L 245.673025 80.956023 
L 249.198416 80.956023 
L 249.198416 80.176727 
L 246.694275 80.176727 
L 246.694275 80.510711 
L 246.044119 80.510711 
L 246.044119 77.02243 
L 249.198416 77.02243 
L 249.198416 76.354461 
L 245.024353 76.354461 
L 245.024353 75.778523 
L 249.198416 75.778523 
L 249.198416 75.05118 
Q 247.515134 75.101648 245.710134 75.138758 
Q 245.655213 74.841883 245.580994 74.507898 
Q 250.283494 74.452977 253.197322 74.257039 
L 253.30865 74.887898 
Q 251.656541 74.96657 249.866384 75.031883 
L 249.866384 75.778523 
L 254.079041 75.778523 
L 254.079041 76.354461 
L 249.866384 76.354461 
L 249.866384 77.02243 
L 253.048884 77.02243 
L 253.048884 80.501805 
L 252.398728 80.501805 
L 252.398728 80.176727 
L 249.866384 80.176727 
L 249.866384 80.956023 
L 253.400681 80.956023 
L 253.400681 81.503758 
L 249.866384 81.503758 
L 249.866384 82.189539 
L 254.079041 82.189539 
L 254.079041 82.765477 
L 244.950134 82.765477 
L 244.950134 82.189539 
z
M 249.866384 79.637898 
L 252.398728 79.637898 
L 252.398728 78.840789 
L 249.866384 78.840789 
L 249.866384 79.637898 
z
M 246.694275 79.637898 
L 249.198416 79.637898 
L 249.198416 78.840789 
L 246.694275 78.840789 
L 246.694275 79.637898 
z
M 252.398728 77.559773 
L 249.866384 77.559773 
L 249.866384 78.349461 
L 252.398728 78.349461 
L 252.398728 77.559773 
z
M 246.694275 78.349461 
L 249.198416 78.349461 
L 249.198416 77.559773 
L 246.694275 77.559773 
L 246.694275 78.349461 
z
M 262.335134 80.380086 
L 262.957088 80.20493 
Q 263.374197 81.623992 263.662166 82.876805 
L 263.012009 83.043055 
Q 262.957088 82.792195 262.891775 82.54282 
Q 261.129822 82.737273 259.580134 82.92282 
L 259.440603 82.15243 
Q 260.313416 82.097508 261.156541 82.032195 
L 261.156541 79.52657 
L 260.387634 79.52657 
L 260.387634 79.833836 
L 259.709275 79.833836 
L 259.709275 75.741414 
L 261.156541 75.741414 
L 261.156541 74.081883 
L 261.806697 74.081883 
L 261.806697 75.741414 
L 263.207947 75.741414 
L 263.207947 79.52657 
L 261.806697 79.52657 
L 261.806697 81.975789 
Q 262.280213 81.93868 262.734431 81.911961 
Q 262.557791 81.169773 262.335134 80.380086 
z
M 255.414978 83.071258 
L 254.801931 83.071258 
L 254.801931 78.321258 
L 259.209041 78.321258 
L 259.209041 82.189539 
Q 259.209041 83.062352 258.290212 83.062352 
L 257.576228 83.062352 
Q 257.530213 82.737273 257.436697 82.421102 
Q 257.882009 82.458211 258.161072 82.458211 
Q 258.595994 82.458211 258.595994 82.060398 
L 258.595994 78.895711 
L 255.414978 78.895711 
L 255.414978 83.071258 
z
M 255.181931 75.677586 
L 258.837947 75.677586 
L 258.837947 77.913055 
L 258.2249 77.913055 
L 258.2249 77.671102 
L 255.794978 77.671102 
L 255.794978 77.913055 
L 255.181931 77.913055 
L 255.181931 75.677586 
z
M 255.581228 80.380086 
L 257.010681 80.380086 
Q 257.539119 79.425633 257.696462 79.054539 
L 258.244197 79.314305 
Q 257.864197 79.934773 257.567322 80.380086 
L 258.410447 80.380086 
L 258.410447 80.936727 
L 257.288259 80.936727 
L 257.288259 82.866414 
L 256.713806 82.866414 
L 256.713806 80.936727 
L 255.581228 80.936727 
L 255.581228 80.380086 
z
M 254.727712 74.442586 
L 259.24615 74.442586 
L 259.24615 75.036336 
L 254.727712 75.036336 
L 254.727712 74.442586 
z
M 258.2249 76.234227 
L 255.794978 76.234227 
L 255.794978 77.114461 
L 258.2249 77.114461 
L 258.2249 76.234227 
z
M 262.577088 78.915008 
L 262.577088 76.354461 
L 261.806697 76.354461 
L 261.806697 78.915008 
L 262.577088 78.915008 
z
M 260.387634 78.915008 
L 261.156541 78.915008 
L 261.156541 76.354461 
L 260.387634 76.354461 
L 260.387634 78.915008 
z
M 255.748963 79.369227 
L 256.194275 79.091648 
Q 256.528259 79.536961 256.796931 80.046102 
L 256.314509 80.342977 
Q 256.045838 79.842742 255.748963 79.369227 
z
M 265.303884 79.054539 
L 271.769822 79.054539 
L 271.769822 83.17368 
L 271.027634 83.17368 
L 271.027634 82.551727 
L 266.046072 82.551727 
L 266.046072 83.191492 
L 265.303884 83.191492 
L 265.303884 79.054539 
z
M 269.274587 74.118992 
L 269.051931 74.387664 
Q 270.601619 76.400477 273.162166 77.421727 
Q 272.874197 77.82993 272.670838 78.163914 
Q 271.918259 77.801727 271.241384 77.347508 
L 271.241384 77.875945 
L 265.814509 77.875945 
L 265.814509 77.411336 
Q 265.137634 77.856648 264.367244 78.284148 
Q 264.181697 77.967977 263.902634 77.587977 
Q 266.770447 76.149617 268.235525 74.118992 
L 269.274587 74.118992 
z
M 271.027634 79.731414 
L 266.046072 79.731414 
L 266.046072 81.892664 
L 271.027634 81.892664 
L 271.027634 79.731414 
z
M 268.560603 74.925008 
Q 267.613572 76.140711 266.083181 77.216883 
L 271.046931 77.216883 
Q 269.636775 76.252039 268.560603 74.925008 
z
" style="fill: #2c3545; stroke: #ffffff; stroke-width: 2"/>
    <path d="M 238.742478 75.333211 
L 238.742478 74.638523 
L 244.012009 74.638523 
L 244.012009 75.315398 
Q 243.577088 78.543914 242.045212 80.519617 
Q 243.047166 81.530477 244.699275 82.189539 
Q 244.299978 82.625945 244.077322 82.95993 
Q 242.481619 82.134617 241.536072 81.122273 
Q 240.477712 82.226648 238.585134 83.182586 
Q 238.381775 82.848602 238.065603 82.477508 
Q 240.023494 81.55868 241.05365 80.528523 
Q 239.6524 78.76657 239.318416 75.333211 
L 238.742478 75.333211 
z
M 235.375916 79.888758 
Q 236.321462 78.441492 236.794978 76.651336 
L 235.467947 76.651336 
L 235.467947 76.00118 
L 236.915212 76.00118 
L 236.915212 74.034383 
L 237.620291 74.034383 
L 237.620291 76.00118 
L 238.928025 76.00118 
L 238.928025 76.651336 
L 237.620291 76.651336 
L 237.620291 77.875945 
L 238.019588 77.504852 
Q 238.853806 78.293055 239.364431 78.906102 
L 238.807791 79.425633 
Q 238.185837 78.635945 237.620291 78.042195 
L 237.620291 83.154383 
L 236.915212 83.154383 
L 236.915212 78.070398 
Q 236.414978 79.628992 235.690603 80.705164 
Q 235.561463 80.305867 235.375916 79.888758 
z
M 243.223806 75.333211 
L 240.060603 75.333211 
Q 240.338181 78.330164 241.553884 79.945164 
Q 242.8349 78.227742 243.223806 75.333211 
z
M 244.950134 82.189539 
L 249.198416 82.189539 
L 249.198416 81.503758 
L 245.673025 81.503758 
L 245.673025 80.956023 
L 249.198416 80.956023 
L 249.198416 80.176727 
L 246.694275 80.176727 
L 246.694275 80.510711 
L 246.044119 80.510711 
L 246.044119 77.02243 
L 249.198416 77.02243 
L 249.198416 76.354461 
L 245.024353 76.354461 
L 245.024353 75.778523 
L 249.198416 75.778523 
L 249.198416 75.05118 
Q 247.515134 75.101648 245.710134 75.138758 
Q 245.655213 74.841883 245.580994 74.507898 
Q 250.283494 74.452977 253.197322 74.257039 
L 253.30865 74.887898 
Q 251.656541 74.96657 249.866384 75.031883 
L 249.866384 75.778523 
L 254.079041 75.778523 
L 254.079041 76.354461 
L 249.866384 76.354461 
L 249.866384 77.02243 
L 253.048884 77.02243 
L 253.048884 80.501805 
L 252.398728 80.501805 
L 252.398728 80.176727 
L 249.866384 80.176727 
L 249.866384 80.956023 
L 253.400681 80.956023 
L 253.400681 81.503758 
L 249.866384 81.503758 
L 249.866384 82.189539 
L 254.079041 82.189539 
L 254.079041 82.765477 
L 244.950134 82.765477 
L 244.950134 82.189539 
z
M 249.866384 79.637898 
L 252.398728 79.637898 
L 252.398728 78.840789 
L 249.866384 78.840789 
L 249.866384 79.637898 
z
M 246.694275 79.637898 
L 249.198416 79.637898 
L 249.198416 78.840789 
L 246.694275 78.840789 
L 246.694275 79.637898 
z
M 252.398728 77.559773 
L 249.866384 77.559773 
L 249.866384 78.349461 
L 252.398728 78.349461 
L 252.398728 77.559773 
z
M 246.694275 78.349461 
L 249.198416 78.349461 
L 249.198416 77.559773 
L 246.694275 77.559773 
L 246.694275 78.349461 
z
M 262.335134 80.380086 
L 262.957088 80.20493 
Q 263.374197 81.623992 263.662166 82.876805 
L 263.012009 83.043055 
Q 262.957088 82.792195 262.891775 82.54282 
Q 261.129822 82.737273 259.580134 82.92282 
L 259.440603 82.15243 
Q 260.313416 82.097508 261.156541 82.032195 
L 261.156541 79.52657 
L 260.387634 79.52657 
L 260.387634 79.833836 
L 259.709275 79.833836 
L 259.709275 75.741414 
L 261.156541 75.741414 
L 261.156541 74.081883 
L 261.806697 74.081883 
L 261.806697 75.741414 
L 263.207947 75.741414 
L 263.207947 79.52657 
L 261.806697 79.52657 
L 261.806697 81.975789 
Q 262.280213 81.93868 262.734431 81.911961 
Q 262.557791 81.169773 262.335134 80.380086 
z
M 255.414978 83.071258 
L 254.801931 83.071258 
L 254.801931 78.321258 
L 259.209041 78.321258 
L 259.209041 82.189539 
Q 259.209041 83.062352 258.290212 83.062352 
L 257.576228 83.062352 
Q 257.530213 82.737273 257.436697 82.421102 
Q 257.882009 82.458211 258.161072 82.458211 
Q 258.595994 82.458211 258.595994 82.060398 
L 258.595994 78.895711 
L 255.414978 78.895711 
L 255.414978 83.071258 
z
M 255.181931 75.677586 
L 258.837947 75.677586 
L 258.837947 77.913055 
L 258.2249 77.913055 
L 258.2249 77.671102 
L 255.794978 77.671102 
L 255.794978 77.913055 
L 255.181931 77.913055 
L 255.181931 75.677586 
z
M 255.581228 80.380086 
L 257.010681 80.380086 
Q 257.539119 79.425633 257.696462 79.054539 
L 258.244197 79.314305 
Q 257.864197 79.934773 257.567322 80.380086 
L 258.410447 80.380086 
L 258.410447 80.936727 
L 257.288259 80.936727 
L 257.288259 82.866414 
L 256.713806 82.866414 
L 256.713806 80.936727 
L 255.581228 80.936727 
L 255.581228 80.380086 
z
M 254.727712 74.442586 
L 259.24615 74.442586 
L 259.24615 75.036336 
L 254.727712 75.036336 
L 254.727712 74.442586 
z
M 258.2249 76.234227 
L 255.794978 76.234227 
L 255.794978 77.114461 
L 258.2249 77.114461 
L 258.2249 76.234227 
z
M 262.577088 78.915008 
L 262.577088 76.354461 
L 261.806697 76.354461 
L 261.806697 78.915008 
L 262.577088 78.915008 
z
M 260.387634 78.915008 
L 261.156541 78.915008 
L 261.156541 76.354461 
L 260.387634 76.354461 
L 260.387634 78.915008 
z
M 255.748963 79.369227 
L 256.194275 79.091648 
Q 256.528259 79.536961 256.796931 80.046102 
L 256.314509 80.342977 
Q 256.045838 79.842742 255.748963 79.369227 
z
M 265.303884 79.054539 
L 271.769822 79.054539 
L 271.769822 83.17368 
L 271.027634 83.17368 
L 271.027634 82.551727 
L 266.046072 82.551727 
L 266.046072 83.191492 
L 265.303884 83.191492 
L 265.303884 79.054539 
z
M 269.274587 74.118992 
L 269.051931 74.387664 
Q 270.601619 76.400477 273.162166 77.421727 
Q 272.874197 77.82993 272.670838 78.163914 
Q 271.918259 77.801727 271.241384 77.347508 
L 271.241384 77.875945 
L 265.814509 77.875945 
L 265.814509 77.411336 
Q 265.137634 77.856648 264.367244 78.284148 
Q 264.181697 77.967977 263.902634 77.587977 
Q 266.770447 76.149617 268.235525 74.118992 
L 269.274587 74.118992 
z
M 271.027634 79.731414 
L 266.046072 79.731414 
L 266.046072 81.892664 
L 271.027634 81.892664 
L 271.027634 79.731414 
z
M 268.560603 74.925008 
Q 267.613572 76.140711 266.083181 77.216883 
L 271.046931 77.216883 
Q 269.636775 76.252039 268.560603 74.925008 
z
" style="fill: #2c3545"/>
   </g>
   <g id="text_5">
    <path d="M 361.240569 81.888211 
L 361.240569 77.129305 
Q 361.240569 76.540008 361.310334 75.714695 
L 361.286584 75.714695 
Q 361.16635 76.234227 361.074319 76.437586 
L 358.703772 81.888211 
L 358.188694 81.888211 
L 355.8226 76.479148 
Q 355.739475 76.293602 355.60885 75.714695 
L 355.582131 75.714695 
Q 355.628147 76.21493 355.628147 77.170867 
L 355.628147 81.888211 
L 354.741975 81.888211 
L 354.741975 74.702352 
L 355.999241 74.702352 
L 358.118928 79.628992 
Q 358.360881 80.194539 358.439553 80.510711 
L 358.472209 80.510711 
Q 358.712678 79.847195 358.810647 79.61118 
L 360.967444 74.702352 
L 362.16385 74.702352 
L 362.16385 81.888211 
L 361.240569 81.888211 
z
M 364.951692 79.202977 
L 364.951692 81.888211 
L 364.023957 81.888211 
L 364.023957 74.702352 
L 366.064973 74.702352 
Q 367.228723 74.702352 367.871457 75.26493 
Q 368.514192 75.826023 368.514192 76.869539 
Q 368.514192 77.926414 367.763098 78.583992 
Q 367.012004 79.240086 365.883879 79.202977 
L 364.951692 79.202977 
z
M 364.951692 75.518758 
L 364.951692 78.38657 
L 365.809661 78.38657 
Q 366.658723 78.38657 367.099582 78.003602 
Q 367.540442 77.620633 367.540442 76.906648 
Q 367.540442 75.518758 365.898723 75.518758 
L 364.951692 75.518758 
z
M 370.763948 74.702352 
L 370.763948 81.888211 
L 369.836213 81.888211 
L 369.836213 74.702352 
L 370.763948 74.702352 
z
" style="fill: #2c3545; stroke: #ffffff; stroke-width: 2"/>
    <path d="M 361.240569 81.888211 
L 361.240569 77.129305 
Q 361.240569 76.540008 361.310334 75.714695 
L 361.286584 75.714695 
Q 361.16635 76.234227 361.074319 76.437586 
L 358.703772 81.888211 
L 358.188694 81.888211 
L 355.8226 76.479148 
Q 355.739475 76.293602 355.60885 75.714695 
L 355.582131 75.714695 
Q 355.628147 76.21493 355.628147 77.170867 
L 355.628147 81.888211 
L 354.741975 81.888211 
L 354.741975 74.702352 
L 355.999241 74.702352 
L 358.118928 79.628992 
Q 358.360881 80.194539 358.439553 80.510711 
L 358.472209 80.510711 
Q 358.712678 79.847195 358.810647 79.61118 
L 360.967444 74.702352 
L 362.16385 74.702352 
L 362.16385 81.888211 
L 361.240569 81.888211 
z
M 364.951692 79.202977 
L 364.951692 81.888211 
L 364.023957 81.888211 
L 364.023957 74.702352 
L 366.064973 74.702352 
Q 367.228723 74.702352 367.871457 75.26493 
Q 368.514192 75.826023 368.514192 76.869539 
Q 368.514192 77.926414 367.763098 78.583992 
Q 367.012004 79.240086 365.883879 79.202977 
L 364.951692 79.202977 
z
M 364.951692 75.518758 
L 364.951692 78.38657 
L 365.809661 78.38657 
Q 366.658723 78.38657 367.099582 78.003602 
Q 367.540442 77.620633 367.540442 76.906648 
Q 367.540442 75.518758 365.898723 75.518758 
L 364.951692 75.518758 
z
M 370.763948 74.702352 
L 370.763948 81.888211 
L 369.836213 81.888211 
L 369.836213 74.702352 
L 370.763948 74.702352 
z
" style="fill: #2c3545"/>
   </g>
   <g id="text_6">
    <path d="M 454.022956 75.258992 
L 454.022956 77.867039 
Q 454.022956 79.962977 453.8003 81.039148 
Q 453.568737 82.15243 452.900769 83.154383 
Q 452.529675 82.717977 452.344128 82.514617 
Q 452.863659 81.678914 453.077409 80.676961 
Q 453.271862 79.74032 453.271862 77.904148 
L 453.271862 74.573211 
L 460.137097 74.573211 
L 460.137097 79.637898 
Q 460.137097 81.30782 460.350847 81.966883 
Q 460.442878 82.180633 460.582409 82.180633 
Q 460.730847 82.180633 460.776862 81.855555 
Q 460.851081 81.364227 460.907488 80.288055 
Q 461.333503 80.454305 461.612566 80.538914 
Q 461.51905 81.512664 461.418113 82.106414 
Q 461.250378 83.025242 460.554206 83.025242 
Q 460.034675 83.025242 459.691784 82.32907 
Q 459.386003 81.689305 459.386003 79.657195 
L 459.386003 75.258992 
L 454.022956 75.258992 
z
M 454.598894 76.345555 
L 455.173347 75.918055 
Q 455.939284 76.970477 456.742331 78.126805 
Q 457.447409 76.976414 458.078269 75.732508 
L 458.709128 76.038289 
Q 458.017409 77.448445 457.19655 78.775477 
Q 458.104987 80.098055 459.060925 81.540867 
L 458.412253 81.98618 
Q 457.5528 80.650242 456.760144 79.462742 
Q 455.851706 80.844695 454.802253 82.134617 
Q 454.570691 81.929773 454.199597 81.678914 
Q 455.326237 80.325164 456.314831 78.80368 
Q 455.410847 77.472195 454.598894 76.345555 
z
M 464.841081 79.554773 
Q 465.12905 81.336023 464.024675 81.549773 
Q 463.718894 81.615086 463.171159 81.55868 
Q 463.096941 81.224695 462.994519 80.890711 
L 462.994519 83.108367 
L 462.32655 83.108367 
L 462.32655 74.507898 
L 464.933112 74.507898 
L 464.933112 75.158055 
Q 464.413581 76.836883 464.1078 77.736414 
Q 464.70155 78.598836 464.841081 79.554773 
z
M 464.720847 82.078211 
L 468.495612 82.078211 
Q 469.257097 80.065398 469.702409 78.598836 
L 470.4728 78.868992 
Q 470.128425 79.851648 469.2853 82.078211 
L 470.8528 82.078211 
L 470.8528 82.765477 
L 464.720847 82.765477 
L 464.720847 82.078211 
z
M 468.357566 74.05368 
L 468.235847 74.331258 
Q 469.322409 76.160008 471.112566 77.133758 
Q 470.806784 77.504852 470.601941 77.78243 
Q 468.903816 76.623133 467.875144 74.99032 
Q 466.836081 76.586023 465.072644 77.867039 
Q 464.896003 77.625086 464.590222 77.282195 
Q 466.613425 75.937352 467.604987 74.05368 
L 468.357566 74.05368 
z
M 463.756003 80.881805 
Q 464.395769 80.816492 464.164206 79.52657 
Q 464.033581 78.80368 463.384909 77.838836 
Q 463.793113 76.59493 464.201316 75.147664 
L 462.994519 75.147664 
L 462.994519 80.816492 
Q 463.402722 80.918914 463.756003 80.881805 
z
M 465.685691 77.430633 
L 469.953269 77.430633 
L 469.953269 78.098602 
L 465.685691 78.098602 
L 465.685691 77.430633 
z
M 465.267097 79.01743 
L 465.897956 78.775477 
Q 466.380378 80.028289 466.779675 81.373133 
L 466.056784 81.604695 
Q 465.712409 80.222742 465.267097 79.01743 
z
M 467.104753 78.673055 
L 467.763816 78.469695 
Q 468.198737 79.796727 468.458503 80.899617 
L 467.716316 81.095555 
Q 467.484753 79.823445 467.104753 78.673055 
z
M 471.418347 78.469695 
L 475.556784 78.469695 
L 475.556784 77.550867 
L 472.068503 77.550867 
L 472.068503 76.948211 
L 475.556784 76.948211 
L 475.556784 76.21493 
L 476.279675 76.21493 
L 476.279675 76.948211 
L 479.916394 76.948211 
L 479.916394 77.550867 
L 476.279675 77.550867 
L 476.279675 78.469695 
L 480.56655 78.469695 
L 480.56655 79.091648 
L 471.418347 79.091648 
L 471.418347 78.469695 
z
M 471.734519 80.000086 
L 477.541394 80.000086 
L 477.541394 79.266805 
L 478.265769 79.266805 
L 478.265769 80.000086 
L 480.250378 80.000086 
L 480.250378 80.622039 
L 478.265769 80.622039 
L 478.265769 81.855555 
Q 478.265769 83.025242 477.058972 83.025242 
Q 476.353894 83.025242 475.639909 83.014852 
Q 475.593894 82.680867 475.500378 82.226648 
Q 476.242566 82.300867 476.864519 82.300867 
Q 477.541394 82.300867 477.541394 81.753133 
L 477.541394 80.622039 
L 471.734519 80.622039 
L 471.734519 80.000086 
z
M 473.153581 73.951258 
L 473.950691 73.951258 
Q 473.738425 74.405477 473.478659 74.82407 
L 476.168347 74.82407 
L 476.168347 75.398523 
L 473.079363 75.398523 
Q 472.531628 76.131805 471.808738 76.753758 
Q 471.623191 76.531102 471.344128 76.252039 
Q 472.503425 75.315398 473.153581 73.951258 
z
M 477.124284 73.951258 
L 477.921394 73.951258 
Q 477.713581 74.40993 477.486472 74.82407 
L 480.473034 74.82407 
L 480.473034 75.398523 
L 477.14655 75.398523 
Q 476.831862 75.894305 476.484519 76.308445 
Q 476.094128 76.029383 475.862566 75.937352 
Q 476.670066 75.064539 477.124284 73.951258 
z
M 473.459362 81.159383 
L 473.950691 80.687352 
Q 474.58155 81.224695 475.240612 81.846648 
L 474.703269 82.357273 
Q 474.20155 81.827352 473.459362 81.159383 
z
M 474.229753 76.780477 
Q 473.876472 76.317352 473.459362 75.83493 
L 473.941784 75.492039 
Q 474.387097 75.918055 474.777488 76.363367 
L 474.229753 76.780477 
z
M 478.274675 76.780477 
Q 478.098034 76.502898 477.523581 75.83493 
L 478.006003 75.492039 
Q 478.506237 75.974461 478.822409 76.363367 
L 478.274675 76.780477 
z
M 485.589675 78.144617 
Q 485.445691 81.196492 483.692644 83.080164 
Q 483.358659 82.74618 483.098894 82.560633 
Q 484.286394 81.30782 484.638191 79.768523 
Q 484.976628 78.441492 484.954363 75.212977 
L 484.12905 75.212977 
L 484.12905 74.553914 
L 488.757331 74.553914 
L 488.757331 75.250086 
L 487.8578 77.114461 
L 489.398581 77.114461 
L 489.398581 77.801727 
Q 488.859753 79.480555 487.936472 80.73782 
Q 488.83155 81.646258 490.130378 82.320164 
Q 489.8528 82.588836 489.509909 83.005945 
Q 488.2853 82.231102 487.445144 81.35532 
Q 486.493659 82.431492 485.205222 83.145477 
Q 484.945456 82.802586 484.685691 82.551727 
Q 486.021628 81.794695 486.949363 80.766023 
Q 486.113659 79.661648 485.589675 78.144617 
z
M 487.087409 77.096648 
L 487.978034 75.212977 
L 485.659441 75.212977 
Q 485.663894 75.876492 485.654988 76.465789 
Q 486.364519 78.868992 487.431784 80.176727 
Q 488.219988 79.100555 488.628191 77.773523 
L 487.087409 77.773523 
L 487.087409 77.096648 
z
M 482.125144 79.072352 
Q 483.089988 78.96993 484.091941 78.840789 
Q 484.054831 79.14657 484.017722 79.443445 
Q 482.505144 79.628992 481.345847 79.823445 
L 481.178112 79.165867 
Q 481.7303 78.677508 482.564519 77.393523 
Q 481.850534 77.443992 481.094988 77.522664 
L 480.918347 76.939305 
Q 481.688738 76.085789 482.708503 73.970555 
L 483.413581 74.276336 
Q 482.459128 75.889852 481.743659 76.891805 
Q 482.263191 76.873992 482.913347 76.845789 
Q 483.247331 76.298055 483.627331 75.640477 
L 484.2953 75.955164 
Q 482.89405 78.079305 482.125144 79.072352 
z
M 480.881237 81.233602 
Q 482.365612 80.881805 483.896003 80.464695 
Q 483.906394 80.788289 483.924206 81.104461 
Q 482.356706 81.530477 481.141003 81.892664 
L 480.881237 81.233602 
z
" style="fill: #2c3545; stroke: #ffffff; stroke-width: 2"/>
    <path d="M 454.022956 75.258992 
L 454.022956 77.867039 
Q 454.022956 79.962977 453.8003 81.039148 
Q 453.568737 82.15243 452.900769 83.154383 
Q 452.529675 82.717977 452.344128 82.514617 
Q 452.863659 81.678914 453.077409 80.676961 
Q 453.271862 79.74032 453.271862 77.904148 
L 453.271862 74.573211 
L 460.137097 74.573211 
L 460.137097 79.637898 
Q 460.137097 81.30782 460.350847 81.966883 
Q 460.442878 82.180633 460.582409 82.180633 
Q 460.730847 82.180633 460.776862 81.855555 
Q 460.851081 81.364227 460.907488 80.288055 
Q 461.333503 80.454305 461.612566 80.538914 
Q 461.51905 81.512664 461.418113 82.106414 
Q 461.250378 83.025242 460.554206 83.025242 
Q 460.034675 83.025242 459.691784 82.32907 
Q 459.386003 81.689305 459.386003 79.657195 
L 459.386003 75.258992 
L 454.022956 75.258992 
z
M 454.598894 76.345555 
L 455.173347 75.918055 
Q 455.939284 76.970477 456.742331 78.126805 
Q 457.447409 76.976414 458.078269 75.732508 
L 458.709128 76.038289 
Q 458.017409 77.448445 457.19655 78.775477 
Q 458.104987 80.098055 459.060925 81.540867 
L 458.412253 81.98618 
Q 457.5528 80.650242 456.760144 79.462742 
Q 455.851706 80.844695 454.802253 82.134617 
Q 454.570691 81.929773 454.199597 81.678914 
Q 455.326237 80.325164 456.314831 78.80368 
Q 455.410847 77.472195 454.598894 76.345555 
z
M 464.841081 79.554773 
Q 465.12905 81.336023 464.024675 81.549773 
Q 463.718894 81.615086 463.171159 81.55868 
Q 463.096941 81.224695 462.994519 80.890711 
L 462.994519 83.108367 
L 462.32655 83.108367 
L 462.32655 74.507898 
L 464.933112 74.507898 
L 464.933112 75.158055 
Q 464.413581 76.836883 464.1078 77.736414 
Q 464.70155 78.598836 464.841081 79.554773 
z
M 464.720847 82.078211 
L 468.495612 82.078211 
Q 469.257097 80.065398 469.702409 78.598836 
L 470.4728 78.868992 
Q 470.128425 79.851648 469.2853 82.078211 
L 470.8528 82.078211 
L 470.8528 82.765477 
L 464.720847 82.765477 
L 464.720847 82.078211 
z
M 468.357566 74.05368 
L 468.235847 74.331258 
Q 469.322409 76.160008 471.112566 77.133758 
Q 470.806784 77.504852 470.601941 77.78243 
Q 468.903816 76.623133 467.875144 74.99032 
Q 466.836081 76.586023 465.072644 77.867039 
Q 464.896003 77.625086 464.590222 77.282195 
Q 466.613425 75.937352 467.604987 74.05368 
L 468.357566 74.05368 
z
M 463.756003 80.881805 
Q 464.395769 80.816492 464.164206 79.52657 
Q 464.033581 78.80368 463.384909 77.838836 
Q 463.793113 76.59493 464.201316 75.147664 
L 462.994519 75.147664 
L 462.994519 80.816492 
Q 463.402722 80.918914 463.756003 80.881805 
z
M 465.685691 77.430633 
L 469.953269 77.430633 
L 469.953269 78.098602 
L 465.685691 78.098602 
L 465.685691 77.430633 
z
M 465.267097 79.01743 
L 465.897956 78.775477 
Q 466.380378 80.028289 466.779675 81.373133 
L 466.056784 81.604695 
Q 465.712409 80.222742 465.267097 79.01743 
z
M 467.104753 78.673055 
L 467.763816 78.469695 
Q 468.198737 79.796727 468.458503 80.899617 
L 467.716316 81.095555 
Q 467.484753 79.823445 467.104753 78.673055 
z
M 471.418347 78.469695 
L 475.556784 78.469695 
L 475.556784 77.550867 
L 472.068503 77.550867 
L 472.068503 76.948211 
L 475.556784 76.948211 
L 475.556784 76.21493 
L 476.279675 76.21493 
L 476.279675 76.948211 
L 479.916394 76.948211 
L 479.916394 77.550867 
L 476.279675 77.550867 
L 476.279675 78.469695 
L 480.56655 78.469695 
L 480.56655 79.091648 
L 471.418347 79.091648 
L 471.418347 78.469695 
z
M 471.734519 80.000086 
L 477.541394 80.000086 
L 477.541394 79.266805 
L 478.265769 79.266805 
L 478.265769 80.000086 
L 480.250378 80.000086 
L 480.250378 80.622039 
L 478.265769 80.622039 
L 478.265769 81.855555 
Q 478.265769 83.025242 477.058972 83.025242 
Q 476.353894 83.025242 475.639909 83.014852 
Q 475.593894 82.680867 475.500378 82.226648 
Q 476.242566 82.300867 476.864519 82.300867 
Q 477.541394 82.300867 477.541394 81.753133 
L 477.541394 80.622039 
L 471.734519 80.622039 
L 471.734519 80.000086 
z
M 473.153581 73.951258 
L 473.950691 73.951258 
Q 473.738425 74.405477 473.478659 74.82407 
L 476.168347 74.82407 
L 476.168347 75.398523 
L 473.079363 75.398523 
Q 472.531628 76.131805 471.808738 76.753758 
Q 471.623191 76.531102 471.344128 76.252039 
Q 472.503425 75.315398 473.153581 73.951258 
z
M 477.124284 73.951258 
L 477.921394 73.951258 
Q 477.713581 74.40993 477.486472 74.82407 
L 480.473034 74.82407 
L 480.473034 75.398523 
L 477.14655 75.398523 
Q 476.831862 75.894305 476.484519 76.308445 
Q 476.094128 76.029383 475.862566 75.937352 
Q 476.670066 75.064539 477.124284 73.951258 
z
M 473.459362 81.159383 
L 473.950691 80.687352 
Q 474.58155 81.224695 475.240612 81.846648 
L 474.703269 82.357273 
Q 474.20155 81.827352 473.459362 81.159383 
z
M 474.229753 76.780477 
Q 473.876472 76.317352 473.459362 75.83493 
L 473.941784 75.492039 
Q 474.387097 75.918055 474.777488 76.363367 
L 474.229753 76.780477 
z
M 478.274675 76.780477 
Q 478.098034 76.502898 477.523581 75.83493 
L 478.006003 75.492039 
Q 478.506237 75.974461 478.822409 76.363367 
L 478.274675 76.780477 
z
M 485.589675 78.144617 
Q 485.445691 81.196492 483.692644 83.080164 
Q 483.358659 82.74618 483.098894 82.560633 
Q 484.286394 81.30782 484.638191 79.768523 
Q 484.976628 78.441492 484.954363 75.212977 
L 484.12905 75.212977 
L 484.12905 74.553914 
L 488.757331 74.553914 
L 488.757331 75.250086 
L 487.8578 77.114461 
L 489.398581 77.114461 
L 489.398581 77.801727 
Q 488.859753 79.480555 487.936472 80.73782 
Q 488.83155 81.646258 490.130378 82.320164 
Q 489.8528 82.588836 489.509909 83.005945 
Q 488.2853 82.231102 487.445144 81.35532 
Q 486.493659 82.431492 485.205222 83.145477 
Q 484.945456 82.802586 484.685691 82.551727 
Q 486.021628 81.794695 486.949363 80.766023 
Q 486.113659 79.661648 485.589675 78.144617 
z
M 487.087409 77.096648 
L 487.978034 75.212977 
L 485.659441 75.212977 
Q 485.663894 75.876492 485.654988 76.465789 
Q 486.364519 78.868992 487.431784 80.176727 
Q 488.219988 79.100555 488.628191 77.773523 
L 487.087409 77.773523 
L 487.087409 77.096648 
z
M 482.125144 79.072352 
Q 483.089988 78.96993 484.091941 78.840789 
Q 484.054831 79.14657 484.017722 79.443445 
Q 482.505144 79.628992 481.345847 79.823445 
L 481.178112 79.165867 
Q 481.7303 78.677508 482.564519 77.393523 
Q 481.850534 77.443992 481.094988 77.522664 
L 480.918347 76.939305 
Q 481.688738 76.085789 482.708503 73.970555 
L 483.413581 74.276336 
Q 482.459128 75.889852 481.743659 76.891805 
Q 482.263191 76.873992 482.913347 76.845789 
Q 483.247331 76.298055 483.627331 75.640477 
L 484.2953 75.955164 
Q 482.89405 78.079305 482.125144 79.072352 
z
M 480.881237 81.233602 
Q 482.365612 80.881805 483.896003 80.464695 
Q 483.906394 80.788289 483.924206 81.104461 
Q 482.356706 81.530477 481.141003 81.892664 
L 480.881237 81.233602 
z
" style="fill: #2c3545"/>
   </g>
   <g id="text_7">
    <path d="M 559.603625 77.393523 
L 560.002922 76.865086 
Q 560.430422 77.124852 560.851984 77.38907 
Q 560.995969 76.762664 561.004875 76.020477 
L 559.863391 76.020477 
L 559.863391 75.352508 
L 561.018234 75.352508 
Q 561.037531 74.582117 561.033078 73.951258 
L 561.747062 73.951258 
Q 561.747062 74.553914 561.72925 75.352508 
L 563.881594 75.352508 
Q 563.796984 78.098602 564.001828 79.072352 
Q 564.122062 79.620086 564.353625 79.620086 
Q 564.539172 79.620086 564.595578 79.303914 
Q 564.678703 78.849695 564.744016 78.061492 
Q 565.095812 78.190633 565.429797 78.284148 
Q 565.337766 79.109461 565.235344 79.591883 
Q 565.040891 80.445398 564.372922 80.445398 
Q 563.574328 80.445398 563.29675 79.155477 
Q 563.129016 78.293055 563.157219 76.020477 
L 561.714406 76.020477 
Q 561.701047 76.989773 561.49175 77.797273 
Q 562.146359 78.218836 562.777219 78.655242 
L 562.312609 79.314305 
Q 561.766359 78.891258 561.255734 78.520164 
Q 560.675344 79.908055 559.391359 80.676961 
Q 559.158312 80.390477 558.852531 80.074305 
Q 560.118703 79.406336 560.638234 78.083758 
Q 560.100891 77.708211 559.603625 77.393523 
z
M 556.217766 77.801727 
Q 556.942141 77.61618 557.647219 77.415789 
L 557.647219 76.00118 
L 556.329094 76.00118 
L 556.329094 75.361414 
L 557.647219 75.361414 
L 557.647219 73.988367 
L 558.352297 73.988367 
L 558.352297 75.361414 
L 559.446281 75.361414 
L 559.446281 76.00118 
L 558.352297 76.00118 
L 558.352297 77.21243 
Q 558.861437 77.055086 559.363156 76.891805 
Q 559.363156 77.319305 559.380969 77.596883 
Q 559.3305 77.61618 558.352297 77.921961 
L 558.352297 79.286102 
Q 558.352297 80.408289 557.302844 80.408289 
Q 556.905031 80.408289 556.440422 80.390477 
Q 556.403312 80.074305 556.329094 79.628992 
Q 556.783312 79.703211 557.154406 79.703211 
Q 557.647219 79.703211 557.647219 79.202977 
L 557.647219 78.140164 
Q 557.090578 78.316805 556.357297 78.543914 
L 556.217766 77.801727 
z
M 563.445187 80.947117 
L 564.038937 80.593836 
Q 564.641594 81.484461 565.235344 82.477508 
L 564.576281 82.866414 
Q 564.084953 81.94907 563.445187 80.947117 
z
M 557.293937 80.807586 
L 557.944094 81.085164 
Q 557.5255 82.041102 556.922844 83.062352 
Q 556.645266 82.903523 556.283078 82.737273 
Q 556.922844 81.73532 557.293937 80.807586 
z
M 558.806516 81.17868 
L 559.418078 80.910008 
Q 559.845578 81.689305 560.299797 82.634852 
L 559.614016 82.931727 
Q 559.214719 81.975789 558.806516 81.17868 
z
M 561.162219 81.132664 
L 561.775266 80.862508 
Q 562.248781 81.689305 562.665891 82.560633 
L 561.989016 82.848602 
Q 561.635734 81.975789 561.162219 81.132664 
z
M 566.05175 76.075398 
L 569.057609 76.075398 
Q 569.085812 75.055633 569.094719 73.997273 
L 569.902219 73.997273 
Q 569.882922 74.981414 569.856203 76.075398 
L 574.113391 76.075398 
Q 574.002062 79.703211 573.901125 81.206883 
Q 573.779406 82.802586 572.194094 82.820398 
Q 571.432609 82.820398 570.356437 82.783289 
Q 570.319328 82.421102 570.216906 81.90157 
L 570.245109 81.90157 
Q 571.451906 82.012898 572.119875 82.003992 
Q 573.019406 81.98618 573.111437 81.010945 
Q 573.222766 79.351414 573.279172 76.836883 
L 569.836906 76.836883 
Q 569.753781 79.253445 569.066516 80.473602 
Q 568.334719 81.827352 566.209094 83.080164 
Q 565.949328 82.74618 565.652453 82.375086 
Q 567.66675 81.243992 568.297609 80.093602 
Q 568.950734 79.048602 569.029406 76.836883 
L 566.05175 76.836883 
L 566.05175 76.075398 
z
M 575.597766 74.359461 
L 583.781125 74.359461 
L 583.781125 83.08907 
L 583.084953 83.08907 
L 583.084953 82.643758 
L 576.293937 82.643758 
L 576.293937 83.08907 
L 575.597766 83.08907 
L 575.597766 74.359461 
z
M 583.084953 75.02743 
L 576.293937 75.02743 
L 576.293937 81.975789 
L 583.084953 81.975789 
L 583.084953 75.02743 
z
M 576.610109 77.300008 
Q 577.880734 76.382664 578.697141 75.138758 
L 579.308703 75.426727 
Q 579.138 75.682039 578.937609 75.926961 
L 582.222531 75.926961 
L 582.222531 76.474695 
Q 581.539719 77.300008 580.482844 77.963523 
Q 581.461047 78.293055 582.881594 78.478602 
Q 582.667844 78.895711 582.574328 79.174773 
Q 580.928156 78.799227 579.791125 78.325711 
Q 578.655578 78.836336 576.776359 79.323211 
Q 576.647219 79.01743 576.461672 78.729461 
Q 578.088547 78.395477 579.151359 77.963523 
Q 578.49675 77.513758 578.024719 76.928914 
Q 577.583859 77.351961 577.064328 77.755711 
Q 576.878781 77.559773 576.610109 77.300008 
z
M 577.278078 80.890711 
L 577.472531 80.250945 
Q 579.791125 80.556727 581.934562 80.96493 
L 581.683703 81.670008 
Q 579.633781 81.215789 577.278078 80.890711 
z
M 581.303703 76.502898 
L 578.441828 76.502898 
Q 578.428469 76.520711 578.413625 76.535555 
Q 578.952453 77.225789 579.773312 77.671102 
Q 580.733703 77.156023 581.303703 76.502898 
z
M 578.251828 79.657195 
L 578.437375 79.035242 
Q 579.801516 79.240086 581.303703 79.499852 
L 581.10925 80.148523 
Q 579.587766 79.842742 578.251828 79.657195 
z
M 585.385734 78.598836 
L 586.221437 78.598836 
L 586.221437 76.911102 
L 586.833 76.911102 
L 586.833 78.598836 
L 587.723625 78.598836 
L 587.723625 79.211883 
L 586.833 79.211883 
L 586.833 80.482508 
Q 587.324328 80.417195 587.834953 80.33407 
Q 587.788937 80.687352 587.769641 80.973836 
Q 587.297609 81.039148 586.833 81.104461 
L 586.833 83.17368 
L 586.221437 83.17368 
L 586.221437 81.196492 
Q 585.468859 81.30782 584.708859 81.429539 
L 584.606437 80.75118 
Q 585.405031 80.668055 586.221437 80.565633 
L 586.221437 79.211883 
L 584.737062 79.211883 
L 584.737062 78.572117 
Q 585.088859 77.57907 585.468859 76.04868 
L 584.652453 76.04868 
L 584.652453 75.45493 
L 585.617297 75.45493 
Q 585.776125 74.786961 585.942375 74.025477 
L 586.610344 74.173914 
Q 586.433703 74.850789 586.276359 75.45493 
L 587.955187 75.45493 
L 587.955187 76.04868 
L 586.119016 76.04868 
Q 585.710812 77.550867 585.385734 78.598836 
z
M 588.633547 83.154383 
L 588.039797 83.154383 
L 588.039797 77.690398 
L 590.506828 77.690398 
L 590.506828 82.254852 
Q 590.506828 83.071258 589.755734 83.071258 
Q 589.467766 83.071258 589.031359 83.062352 
Q 588.985344 82.857508 588.902219 82.486414 
Q 589.273312 82.514617 589.579094 82.514617 
Q 589.913078 82.514617 589.913078 82.143523 
L 589.913078 81.067352 
L 588.633547 81.067352 
L 588.633547 83.154383 
z
M 591.314328 74.090789 
L 591.156984 74.294148 
Q 592.242062 75.926961 593.874875 76.632039 
Q 593.558703 77.003133 593.392453 77.273289 
Q 592.761594 76.920008 592.222766 76.474695 
L 592.222766 76.939305 
L 589.004641 76.939305 
L 589.004641 76.531102 
Q 588.456906 76.98532 587.863156 77.36532 
Q 587.584094 77.003133 587.371828 76.799773 
Q 589.216906 75.723602 590.349484 74.090789 
L 591.314328 74.090789 
z
M 592.696281 77.522664 
L 593.327141 77.522664 
L 593.327141 82.041102 
Q 593.327141 83.071258 592.455812 83.080164 
Q 591.982297 83.08907 591.36925 83.062352 
Q 591.323234 82.717977 591.240109 82.36618 
Q 591.824953 82.440398 592.242062 82.440398 
Q 592.696281 82.440398 592.696281 81.957977 
L 592.696281 77.522664 
z
M 590.701281 74.77657 
Q 590.006594 75.649383 589.199094 76.354461 
L 592.074328 76.354461 
Q 591.286125 75.667195 590.701281 74.77657 
z
M 591.277219 77.967977 
L 591.870969 77.967977 
L 591.870969 81.34493 
L 591.277219 81.34493 
L 591.277219 77.967977 
z
M 588.633547 80.54782 
L 589.913078 80.54782 
L 589.913078 79.657195 
L 588.633547 79.657195 
L 588.633547 80.54782 
z
M 589.913078 78.255945 
L 588.633547 78.255945 
L 588.633547 79.137664 
L 589.913078 79.137664 
L 589.913078 78.255945 
z
M 601.528312 78.664148 
L 601.528312 78.321258 
L 599.088 78.321258 
L 599.088 81.957977 
L 601.807375 81.957977 
L 601.807375 79.314305 
L 602.586672 79.314305 
L 602.586672 82.997039 
L 601.807375 82.997039 
L 601.807375 82.663055 
L 594.830812 82.663055 
L 594.830812 79.314305 
L 595.619016 79.314305 
L 595.619016 81.957977 
L 598.281984 81.957977 
L 598.281984 78.321258 
L 595.080187 78.321258 
L 595.080187 74.99032 
L 595.869875 74.99032 
L 595.869875 77.61618 
L 598.281984 77.61618 
L 598.281984 74.136805 
L 599.088 74.136805 
L 599.088 77.61618 
L 601.528312 77.61618 
L 601.528312 74.99032 
L 602.316516 74.99032 
L 602.316516 78.664148 
L 601.528312 78.664148 
z
" style="fill: #2c3545; stroke: #ffffff; stroke-width: 2"/>
    <path d="M 559.603625 77.393523 
L 560.002922 76.865086 
Q 560.430422 77.124852 560.851984 77.38907 
Q 560.995969 76.762664 561.004875 76.020477 
L 559.863391 76.020477 
L 559.863391 75.352508 
L 561.018234 75.352508 
Q 561.037531 74.582117 561.033078 73.951258 
L 561.747062 73.951258 
Q 561.747062 74.553914 561.72925 75.352508 
L 563.881594 75.352508 
Q 563.796984 78.098602 564.001828 79.072352 
Q 564.122062 79.620086 564.353625 79.620086 
Q 564.539172 79.620086 564.595578 79.303914 
Q 564.678703 78.849695 564.744016 78.061492 
Q 565.095812 78.190633 565.429797 78.284148 
Q 565.337766 79.109461 565.235344 79.591883 
Q 565.040891 80.445398 564.372922 80.445398 
Q 563.574328 80.445398 563.29675 79.155477 
Q 563.129016 78.293055 563.157219 76.020477 
L 561.714406 76.020477 
Q 561.701047 76.989773 561.49175 77.797273 
Q 562.146359 78.218836 562.777219 78.655242 
L 562.312609 79.314305 
Q 561.766359 78.891258 561.255734 78.520164 
Q 560.675344 79.908055 559.391359 80.676961 
Q 559.158312 80.390477 558.852531 80.074305 
Q 560.118703 79.406336 560.638234 78.083758 
Q 560.100891 77.708211 559.603625 77.393523 
z
M 556.217766 77.801727 
Q 556.942141 77.61618 557.647219 77.415789 
L 557.647219 76.00118 
L 556.329094 76.00118 
L 556.329094 75.361414 
L 557.647219 75.361414 
L 557.647219 73.988367 
L 558.352297 73.988367 
L 558.352297 75.361414 
L 559.446281 75.361414 
L 559.446281 76.00118 
L 558.352297 76.00118 
L 558.352297 77.21243 
Q 558.861437 77.055086 559.363156 76.891805 
Q 559.363156 77.319305 559.380969 77.596883 
Q 559.3305 77.61618 558.352297 77.921961 
L 558.352297 79.286102 
Q 558.352297 80.408289 557.302844 80.408289 
Q 556.905031 80.408289 556.440422 80.390477 
Q 556.403312 80.074305 556.329094 79.628992 
Q 556.783312 79.703211 557.154406 79.703211 
Q 557.647219 79.703211 557.647219 79.202977 
L 557.647219 78.140164 
Q 557.090578 78.316805 556.357297 78.543914 
L 556.217766 77.801727 
z
M 563.445187 80.947117 
L 564.038937 80.593836 
Q 564.641594 81.484461 565.235344 82.477508 
L 564.576281 82.866414 
Q 564.084953 81.94907 563.445187 80.947117 
z
M 557.293937 80.807586 
L 557.944094 81.085164 
Q 557.5255 82.041102 556.922844 83.062352 
Q 556.645266 82.903523 556.283078 82.737273 
Q 556.922844 81.73532 557.293937 80.807586 
z
M 558.806516 81.17868 
L 559.418078 80.910008 
Q 559.845578 81.689305 560.299797 82.634852 
L 559.614016 82.931727 
Q 559.214719 81.975789 558.806516 81.17868 
z
M 561.162219 81.132664 
L 561.775266 80.862508 
Q 562.248781 81.689305 562.665891 82.560633 
L 561.989016 82.848602 
Q 561.635734 81.975789 561.162219 81.132664 
z
M 566.05175 76.075398 
L 569.057609 76.075398 
Q 569.085812 75.055633 569.094719 73.997273 
L 569.902219 73.997273 
Q 569.882922 74.981414 569.856203 76.075398 
L 574.113391 76.075398 
Q 574.002062 79.703211 573.901125 81.206883 
Q 573.779406 82.802586 572.194094 82.820398 
Q 571.432609 82.820398 570.356437 82.783289 
Q 570.319328 82.421102 570.216906 81.90157 
L 570.245109 81.90157 
Q 571.451906 82.012898 572.119875 82.003992 
Q 573.019406 81.98618 573.111437 81.010945 
Q 573.222766 79.351414 573.279172 76.836883 
L 569.836906 76.836883 
Q 569.753781 79.253445 569.066516 80.473602 
Q 568.334719 81.827352 566.209094 83.080164 
Q 565.949328 82.74618 565.652453 82.375086 
Q 567.66675 81.243992 568.297609 80.093602 
Q 568.950734 79.048602 569.029406 76.836883 
L 566.05175 76.836883 
L 566.05175 76.075398 
z
M 575.597766 74.359461 
L 583.781125 74.359461 
L 583.781125 83.08907 
L 583.084953 83.08907 
L 583.084953 82.643758 
L 576.293937 82.643758 
L 576.293937 83.08907 
L 575.597766 83.08907 
L 575.597766 74.359461 
z
M 583.084953 75.02743 
L 576.293937 75.02743 
L 576.293937 81.975789 
L 583.084953 81.975789 
L 583.084953 75.02743 
z
M 576.610109 77.300008 
Q 577.880734 76.382664 578.697141 75.138758 
L 579.308703 75.426727 
Q 579.138 75.682039 578.937609 75.926961 
L 582.222531 75.926961 
L 582.222531 76.474695 
Q 581.539719 77.300008 580.482844 77.963523 
Q 581.461047 78.293055 582.881594 78.478602 
Q 582.667844 78.895711 582.574328 79.174773 
Q 580.928156 78.799227 579.791125 78.325711 
Q 578.655578 78.836336 576.776359 79.323211 
Q 576.647219 79.01743 576.461672 78.729461 
Q 578.088547 78.395477 579.151359 77.963523 
Q 578.49675 77.513758 578.024719 76.928914 
Q 577.583859 77.351961 577.064328 77.755711 
Q 576.878781 77.559773 576.610109 77.300008 
z
M 577.278078 80.890711 
L 577.472531 80.250945 
Q 579.791125 80.556727 581.934562 80.96493 
L 581.683703 81.670008 
Q 579.633781 81.215789 577.278078 80.890711 
z
M 581.303703 76.502898 
L 578.441828 76.502898 
Q 578.428469 76.520711 578.413625 76.535555 
Q 578.952453 77.225789 579.773312 77.671102 
Q 580.733703 77.156023 581.303703 76.502898 
z
M 578.251828 79.657195 
L 578.437375 79.035242 
Q 579.801516 79.240086 581.303703 79.499852 
L 581.10925 80.148523 
Q 579.587766 79.842742 578.251828 79.657195 
z
M 585.385734 78.598836 
L 586.221437 78.598836 
L 586.221437 76.911102 
L 586.833 76.911102 
L 586.833 78.598836 
L 587.723625 78.598836 
L 587.723625 79.211883 
L 586.833 79.211883 
L 586.833 80.482508 
Q 587.324328 80.417195 587.834953 80.33407 
Q 587.788937 80.687352 587.769641 80.973836 
Q 587.297609 81.039148 586.833 81.104461 
L 586.833 83.17368 
L 586.221437 83.17368 
L 586.221437 81.196492 
Q 585.468859 81.30782 584.708859 81.429539 
L 584.606437 80.75118 
Q 585.405031 80.668055 586.221437 80.565633 
L 586.221437 79.211883 
L 584.737062 79.211883 
L 584.737062 78.572117 
Q 585.088859 77.57907 585.468859 76.04868 
L 584.652453 76.04868 
L 584.652453 75.45493 
L 585.617297 75.45493 
Q 585.776125 74.786961 585.942375 74.025477 
L 586.610344 74.173914 
Q 586.433703 74.850789 586.276359 75.45493 
L 587.955187 75.45493 
L 587.955187 76.04868 
L 586.119016 76.04868 
Q 585.710812 77.550867 585.385734 78.598836 
z
M 588.633547 83.154383 
L 588.039797 83.154383 
L 588.039797 77.690398 
L 590.506828 77.690398 
L 590.506828 82.254852 
Q 590.506828 83.071258 589.755734 83.071258 
Q 589.467766 83.071258 589.031359 83.062352 
Q 588.985344 82.857508 588.902219 82.486414 
Q 589.273312 82.514617 589.579094 82.514617 
Q 589.913078 82.514617 589.913078 82.143523 
L 589.913078 81.067352 
L 588.633547 81.067352 
L 588.633547 83.154383 
z
M 591.314328 74.090789 
L 591.156984 74.294148 
Q 592.242062 75.926961 593.874875 76.632039 
Q 593.558703 77.003133 593.392453 77.273289 
Q 592.761594 76.920008 592.222766 76.474695 
L 592.222766 76.939305 
L 589.004641 76.939305 
L 589.004641 76.531102 
Q 588.456906 76.98532 587.863156 77.36532 
Q 587.584094 77.003133 587.371828 76.799773 
Q 589.216906 75.723602 590.349484 74.090789 
L 591.314328 74.090789 
z
M 592.696281 77.522664 
L 593.327141 77.522664 
L 593.327141 82.041102 
Q 593.327141 83.071258 592.455812 83.080164 
Q 591.982297 83.08907 591.36925 83.062352 
Q 591.323234 82.717977 591.240109 82.36618 
Q 591.824953 82.440398 592.242062 82.440398 
Q 592.696281 82.440398 592.696281 81.957977 
L 592.696281 77.522664 
z
M 590.701281 74.77657 
Q 590.006594 75.649383 589.199094 76.354461 
L 592.074328 76.354461 
Q 591.286125 75.667195 590.701281 74.77657 
z
M 591.277219 77.967977 
L 591.870969 77.967977 
L 591.870969 81.34493 
L 591.277219 81.34493 
L 591.277219 77.967977 
z
M 588.633547 80.54782 
L 589.913078 80.54782 
L 589.913078 79.657195 
L 588.633547 79.657195 
L 588.633547 80.54782 
z
M 589.913078 78.255945 
L 588.633547 78.255945 
L 588.633547 79.137664 
L 589.913078 79.137664 
L 589.913078 78.255945 
z
M 601.528312 78.664148 
L 601.528312 78.321258 
L 599.088 78.321258 
L 599.088 81.957977 
L 601.807375 81.957977 
L 601.807375 79.314305 
L 602.586672 79.314305 
L 602.586672 82.997039 
L 601.807375 82.997039 
L 601.807375 82.663055 
L 594.830812 82.663055 
L 594.830812 79.314305 
L 595.619016 79.314305 
L 595.619016 81.957977 
L 598.281984 81.957977 
L 598.281984 78.321258 
L 595.080187 78.321258 
L 595.080187 74.99032 
L 595.869875 74.99032 
L 595.869875 77.61618 
L 598.281984 77.61618 
L 598.281984 74.136805 
L 599.088 74.136805 
L 599.088 77.61618 
L 601.528312 77.61618 
L 601.528312 74.99032 
L 602.316516 74.99032 
L 602.316516 78.664148 
L 601.528312 78.664148 
z
" style="fill: #2c3545"/>
   </g>
  </g>
 </g>
 <defs>
  <clipPath id="pdd757f7236">
   <rect x="7.2" y="7.2" width="602.64" height="144.144"/>
  </clipPath>
 </defs>
</svg>
